<svg xmlns="http://www.w3.org/2000/svg" width="1920" height="1080"><path d="M54,1225L-29,1230L424,1238Z" fill="#c07364" stroke="#c07364" stroke-width="1.51"/><path d="M424,1238L-29,1230L812,1281Z" fill="#b96250" stroke="#b96250" stroke-width="1.51"/><path d="M1050,1264L812,1281L1494,1256Z" fill="#af2c23" stroke="#af2c23" stroke-width="1.51"/><path d="M887,-178L1380,-153L1565,-194Z" fill="#ff9d86" stroke="#ff9d86" stroke-width="1.51"/><path d="M599,-203L887,-178L1565,-194Z" fill="#ffad96" stroke="#ffad96" stroke-width="1.51"/><path d="M1662,-185L1787,-125L1935,-133Z" fill="#e08977" stroke="#e08977" stroke-width="1.51"/><path d="M1807,1198L1713,1247L2010,1222Z" fill="#910913" stroke="#910913" stroke-width="1.51"/><path d="M1565,-194L1662,-185L2037,-171Z" fill="#e38c7b" stroke="#e38c7b" stroke-width="1.51"/><path d="M1662,-185L1935,-133L2037,-171Z" fill="#d98777" stroke="#d98777" stroke-width="1.51"/><path d="M2068,-44L2053,85L2069,209Z" fill="#be6d5d" stroke="#be6d5d" stroke-width="1.51"/><path d="M2040,1045L1995,1150L2114,1214Z" fill="#8a0712" stroke="#8a0712" stroke-width="1.51"/><path d="M1995,1150L2010,1222L2114,1214Z" fill="#810512" stroke="#810512" stroke-width="1.51"/><path d="M2079,828L2044,935L2114,1214Z" fill="#970a15" stroke="#970a15" stroke-width="1.51"/><path d="M2044,935L2040,1045L2114,1214Z" fill="#920914" stroke="#920914" stroke-width="1.51"/><path d="M2046,368L2013,387L2119,512Z" fill="#b94937" stroke="#b94937" stroke-width="1.51"/><path d="M2013,387L2035,589L2119,512Z" fill="#b94030" stroke="#b94030" stroke-width="1.51"/><path d="M2034,732L2079,828L2119,512Z" fill="#b22620" stroke="#b22620" stroke-width="1.51"/><path d="M2035,589L2034,732L2119,512Z" fill="#b63226" stroke="#b63226" stroke-width="1.51"/><path d="M2069,209L2046,368L2119,512Z" fill="#b84f3d" stroke="#b84f3d" stroke-width="1.51"/><path d="M2068,-44L2069,209L2119,512Z" fill="#b95e4c" stroke="#b95e4c" stroke-width="1.51"/><path d="M2079,828L2114,1214L2119,512Z" fill="#a21319" stroke="#a21319" stroke-width="1.51"/><path d="M2013,387L1917,426L2035,589Z" fill="#c14634" stroke="#c14634" stroke-width="1.51"/><path d="M1941,710L2034,732L2035,589Z" fill="#ba2a22" stroke="#ba2a22" stroke-width="1.51"/><path d="M1990,1003L2040,1045L2044,935Z" fill="#9d0c15" stroke="#9d0c15" stroke-width="1.51"/><path d="M1930,195L2013,387L2046,368Z" fill="#c15743" stroke="#c15743" stroke-width="1.51"/><path d="M2037,-171L1935,-133L2068,-44Z" fill="#c87e71" stroke="#c87e71" stroke-width="1.51"/><path d="M1916,-58L2053,85L2068,-44Z" fill="#c67868" stroke="#c67868" stroke-width="1.51"/><path d="M1930,195L2046,368L2069,209Z" fill="#c05d4a" stroke="#c05d4a" stroke-width="1.51"/><path d="M2053,85L1942,150L2069,209Z" fill="#c16956" stroke="#c16956" stroke-width="1.51"/><path d="M1906,881L2044,935L2079,828Z" fill="#a91318" stroke="#a91318" stroke-width="1.51"/><path d="M2034,732L1906,881L2079,828Z" fill="#b0191b" stroke="#b0191b" stroke-width="1.51"/><path d="M1917,426L1879,487L2035,589Z" fill="#c64431" stroke="#c64431" stroke-width="1.51"/><path d="M1926,616L1941,710L2035,589Z" fill="#bf3125" stroke="#bf3125" stroke-width="1.51"/><path d="M1935,-133L1916,-58L2068,-44Z" fill="#cc7e6f" stroke="#cc7e6f" stroke-width="1.51"/><path d="M1942,150L1930,195L2069,209Z" fill="#c56753" stroke="#c56753" stroke-width="1.51"/><path d="M1941,710L1906,881L2034,732Z" fill="#b91f1d" stroke="#b91f1d" stroke-width="1.51"/><path d="M1879,487L1926,616L2035,589Z" fill="#c43c2b" stroke="#c43c2b" stroke-width="1.51"/><path d="M1916,-58L1942,150L2053,85Z" fill="#c97461" stroke="#c97461" stroke-width="1.51"/><path d="M1990,1003L1995,1150L2040,1045Z" fill="#970b14" stroke="#970b14" stroke-width="1.51"/><path d="M1930,195L1821,300L2013,387Z" fill="#cb5c47" stroke="#cb5c47" stroke-width="1.51"/><path d="M1906,881L1990,1003L2044,935Z" fill="#a70f17" stroke="#a70f17" stroke-width="1.51"/><path d="M1821,300L1917,426L2013,387Z" fill="#ca543f" stroke="#ca543f" stroke-width="1.51"/><path d="M1990,1003L1825,1029L1995,1150Z" fill="#9f0d15" stroke="#9f0d15" stroke-width="1.51"/><path d="M1995,1150L1807,1198L2010,1222Z" fill="#8c0713" stroke="#8c0713" stroke-width="1.51"/><path d="M1888,711L1906,881L1941,710Z" fill="#bf211e" stroke="#bf211e" stroke-width="1.51"/><path d="M1916,-58L1792,-1L1942,150Z" fill="#d47b66" stroke="#d47b66" stroke-width="1.51"/><path d="M1825,1029L1789,1092L1995,1150Z" fill="#a40f15" stroke="#a40f15" stroke-width="1.51"/><path d="M1789,1092L1807,1198L1995,1150Z" fill="#9c0c14" stroke="#9c0c14" stroke-width="1.51"/><path d="M-44,-189L218,-166L599,-203Z" fill="#ffddcf" stroke="#ffddcf" stroke-width="1.51"/><path d="M1792,-1L1804,130L1942,150Z" fill="#d77560" stroke="#d77560" stroke-width="1.51"/><path d="M1906,881L1825,1029L1990,1003Z" fill="#ac1017" stroke="#ac1017" stroke-width="1.51"/><path d="M1888,711L1786,800L1906,881Z" fill="#c21f1d" stroke="#c21f1d" stroke-width="1.51"/><path d="M1879,487L1802,595L1926,616Z" fill="#cc3e2d" stroke="#cc3e2d" stroke-width="1.51"/><path d="M1816,208L1821,300L1930,195Z" fill="#d3664f" stroke="#d3664f" stroke-width="1.51"/><path d="M1926,616L1888,711L1941,710Z" fill="#c32d23" stroke="#c32d23" stroke-width="1.51"/><path d="M1804,130L1930,195L1942,150Z" fill="#d06d57" stroke="#d06d57" stroke-width="1.51"/><path d="M1804,130L1816,208L1930,195Z" fill="#d46d56" stroke="#d46d56" stroke-width="1.51"/><path d="M1787,-125L1916,-58L1935,-133Z" fill="#d88473" stroke="#d88473" stroke-width="1.51"/><path d="M1802,595L1888,711L1926,616Z" fill="#ca3427" stroke="#ca3427" stroke-width="1.51"/><path d="M1821,300L1879,487L1917,426Z" fill="#ce513c" stroke="#ce513c" stroke-width="1.51"/><path d="M1787,-125L1792,-1L1916,-58Z" fill="#db8371" stroke="#db8371" stroke-width="1.51"/><path d="M1695,402L1751,501L1821,300Z" fill="#d7553f" stroke="#d7553f" stroke-width="1.51"/><path d="M1821,300L1751,501L1879,487Z" fill="#d3503a" stroke="#d3503a" stroke-width="1.51"/><path d="M1691,938L1825,1029L1906,881Z" fill="#b71319" stroke="#b71319" stroke-width="1.51"/><path d="M1786,800L1691,938L1906,881Z" fill="#bf191b" stroke="#bf191b" stroke-width="1.51"/><path d="M1625,1230L1494,1256L1713,1247Z" fill="#9c0b16" stroke="#9c0b16" stroke-width="1.51"/><path d="M1685,907L1691,938L1786,800Z" fill="#c3191c" stroke="#c3191c" stroke-width="1.51"/><path d="M1751,501L1802,595L1879,487Z" fill="#d24431" stroke="#d24431" stroke-width="1.51"/><path d="M1802,595L1786,800L1888,711Z" fill="#cc2c23" stroke="#cc2c23" stroke-width="1.51"/><path d="M1207,1222L1050,1264L1494,1256Z" fill="#b0201e" stroke="#b0201e" stroke-width="1.51"/><path d="M1699,632L1786,800L1802,595Z" fill="#d13125" stroke="#d13125" stroke-width="1.51"/><path d="M1699,632L1709,779L1786,800Z" fill="#d02721" stroke="#d02721" stroke-width="1.51"/><path d="M1792,-1L1752,129L1804,130Z" fill="#dc7862" stroke="#dc7862" stroke-width="1.51"/><path d="M1804,130L1752,129L1816,208Z" fill="#d97159" stroke="#d97159" stroke-width="1.51"/><path d="M1816,208L1706,250L1821,300Z" fill="#d8664e" stroke="#d8664e" stroke-width="1.51"/><path d="M1706,250L1695,402L1821,300Z" fill="#d95f47" stroke="#d95f47" stroke-width="1.51"/><path d="M1674,1052L1789,1092L1825,1029Z" fill="#af1217" stroke="#af1217" stroke-width="1.51"/><path d="M1691,938L1674,1052L1825,1029Z" fill="#b61318" stroke="#b61318" stroke-width="1.51"/><path d="M1787,-125L1691,-6L1792,-1Z" fill="#e08470" stroke="#e08470" stroke-width="1.51"/><path d="M1789,1092L1713,1247L1807,1198Z" fill="#9d0c15" stroke="#9d0c15" stroke-width="1.51"/><path d="M1752,129L1706,250L1816,208Z" fill="#da6d55" stroke="#da6d55" stroke-width="1.51"/><path d="M1691,-6L1752,129L1792,-1Z" fill="#df7d68" stroke="#df7d68" stroke-width="1.51"/><path d="M1709,779L1685,907L1786,800Z" fill="#c81f1e" stroke="#c81f1e" stroke-width="1.51"/><path d="M1674,1052L1713,1247L1789,1092Z" fill="#a81016" stroke="#a81016" stroke-width="1.51"/><path d="M1751,501L1699,632L1802,595Z" fill="#d53f2d" stroke="#d53f2d" stroke-width="1.51"/><path d="M1662,-185L1691,-6L1787,-125Z" fill="#e48976" stroke="#e48976" stroke-width="1.51"/><path d="M887,-178L1039,-125L1380,-153Z" fill="#ffa58e" stroke="#ffa58e" stroke-width="1.51"/><path d="M1674,1052L1625,1230L1713,1247Z" fill="#a40d16" stroke="#a40d16" stroke-width="1.51"/><path d="M1640,501L1699,632L1751,501Z" fill="#da4430" stroke="#da4430" stroke-width="1.51"/><path d="M1695,402L1640,501L1751,501Z" fill="#db4e38" stroke="#db4e38" stroke-width="1.51"/><path d="M1613,97L1706,250L1752,129Z" fill="#df725b" stroke="#df725b" stroke-width="1.51"/><path d="M1691,-6L1613,97L1752,129Z" fill="#e27b65" stroke="#e27b65" stroke-width="1.51"/><path d="M1572,1048L1625,1230L1674,1052Z" fill="#b21218" stroke="#b21218" stroke-width="1.51"/><path d="M1662,-185L1565,-194L1691,-6Z" fill="#ea8c79" stroke="#ea8c79" stroke-width="1.51"/><path d="M1565,-194L1541,17L1691,-6Z" fill="#eb8975" stroke="#eb8975" stroke-width="1.51"/><path d="M1588,253L1562,390L1695,402Z" fill="#e15e46" stroke="#e15e46" stroke-width="1.51"/><path d="M1640,501L1565,576L1699,632Z" fill="#dd422f" stroke="#dd422f" stroke-width="1.51"/><path d="M1588,253L1695,402L1706,250Z" fill="#df624b" stroke="#df624b" stroke-width="1.51"/><path d="M1613,97L1588,253L1706,250Z" fill="#e26f57" stroke="#e26f57" stroke-width="1.51"/><path d="M1554,878L1685,907L1709,779Z" fill="#ca1d1e" stroke="#ca1d1e" stroke-width="1.51"/><path d="M1556,779L1554,878L1709,779Z" fill="#d12220" stroke="#d12220" stroke-width="1.51"/><path d="M1699,632L1556,779L1709,779Z" fill="#d62a23" stroke="#d62a23" stroke-width="1.51"/><path d="M1562,1003L1674,1052L1691,938Z" fill="#bd141a" stroke="#bd141a" stroke-width="1.51"/><path d="M1565,576L1556,779L1699,632Z" fill="#db3529" stroke="#db3529" stroke-width="1.51"/><path d="M1562,390L1640,501L1695,402Z" fill="#df543d" stroke="#df543d" stroke-width="1.51"/><path d="M1541,17L1613,97L1691,-6Z" fill="#e8816b" stroke="#e8816b" stroke-width="1.51"/><path d="M1685,907L1562,1003L1691,938Z" fill="#c1151b" stroke="#c1151b" stroke-width="1.51"/><path d="M1562,1003L1572,1048L1674,1052Z" fill="#bc151a" stroke="#bc151a" stroke-width="1.51"/><path d="M1554,878L1562,1003L1685,907Z" fill="#c6171c" stroke="#c6171c" stroke-width="1.51"/><path d="M1471,-132L1541,17L1565,-194Z" fill="#f18e7a" stroke="#f18e7a" stroke-width="1.51"/><path d="M1039,-125L1253,-113L1380,-153Z" fill="#ff9d85" stroke="#ff9d85" stroke-width="1.51"/><path d="M1450,635L1556,779L1565,576Z" fill="#e1372a" stroke="#e1372a" stroke-width="1.51"/><path d="M1457,1082L1494,1256L1572,1048Z" fill="#b61619" stroke="#b61619" stroke-width="1.51"/><path d="M1469,109L1588,253L1613,97Z" fill="#e9765e" stroke="#e9765e" stroke-width="1.51"/><path d="M1572,1048L1494,1256L1625,1230Z" fill="#aa0f17" stroke="#aa0f17" stroke-width="1.51"/><path d="M1457,491L1565,576L1640,501Z" fill="#e34935" stroke="#e34935" stroke-width="1.51"/><path d="M1562,390L1457,491L1640,501Z" fill="#e4523b" stroke="#e4523b" stroke-width="1.51"/><path d="M1554,878L1502,951L1562,1003Z" fill="#c9191d" stroke="#c9191d" stroke-width="1.51"/><path d="M1488,344L1562,390L1588,253Z" fill="#e66249" stroke="#e66249" stroke-width="1.51"/><path d="M1469,109L1447,192L1588,253Z" fill="#eb755c" stroke="#eb755c" stroke-width="1.51"/><path d="M1541,17L1469,109L1613,97Z" fill="#ec7f67" stroke="#ec7f67" stroke-width="1.51"/><path d="M1471,-132L1438,-61L1541,17Z" fill="#f28d78" stroke="#f28d78" stroke-width="1.51"/><path d="M1447,192L1488,344L1588,253Z" fill="#ea6c52" stroke="#ea6c52" stroke-width="1.51"/><path d="M1450,635L1403,753L1556,779Z" fill="#e23127" stroke="#e23127" stroke-width="1.51"/><path d="M1441,835L1554,878L1556,779Z" fill="#d52321" stroke="#d52321" stroke-width="1.51"/><path d="M1380,-153L1471,-132L1565,-194Z" fill="#f5937f" stroke="#f5937f" stroke-width="1.51"/><path d="M1562,1003L1457,1082L1572,1048Z" fill="#bf171a" stroke="#bf171a" stroke-width="1.51"/><path d="M1488,344L1457,491L1562,390Z" fill="#e85a42" stroke="#e85a42" stroke-width="1.51"/><path d="M1457,491L1450,635L1565,576Z" fill="#e64733" stroke="#e64733" stroke-width="1.51"/><path d="M1502,951L1457,1082L1562,1003Z" fill="#c4191c" stroke="#c4191c" stroke-width="1.51"/><path d="M1403,753L1441,835L1556,779Z" fill="#dc2b24" stroke="#dc2b24" stroke-width="1.51"/><path d="M1441,835L1502,951L1554,878Z" fill="#d11f1f" stroke="#d11f1f" stroke-width="1.51"/><path d="M1438,-61L1469,109L1541,17Z" fill="#f18770" stroke="#f18770" stroke-width="1.51"/><path d="M1366,583L1450,635L1457,491Z" fill="#ea4934" stroke="#ea4934" stroke-width="1.51"/><path d="M1438,-61L1375,-21L1469,109Z" fill="#f48b73" stroke="#f48b73" stroke-width="1.51"/><path d="M1447,192L1295,260L1488,344Z" fill="#ef6f55" stroke="#ef6f55" stroke-width="1.51"/><path d="M1301,387L1457,491L1488,344Z" fill="#ed5e44" stroke="#ed5e44" stroke-width="1.51"/><path d="M1309,1172L1207,1222L1494,1256Z" fill="#b11d1c" stroke="#b11d1c" stroke-width="1.51"/><path d="M1457,1082L1364,1129L1494,1256Z" fill="#b5191b" stroke="#b5191b" stroke-width="1.51"/><path d="M1324,989L1457,1082L1502,951Z" fill="#c91f1e" stroke="#c91f1e" stroke-width="1.51"/><path d="M1441,835L1324,989L1502,951Z" fill="#d22120" stroke="#d22120" stroke-width="1.51"/><path d="M1364,1129L1309,1172L1494,1256Z" fill="#b31b1b" stroke="#b31b1b" stroke-width="1.51"/><path d="M1295,260L1301,387L1488,344Z" fill="#f1694e" stroke="#f1694e" stroke-width="1.51"/><path d="M1301,387L1349,513L1457,491Z" fill="#ef5940" stroke="#ef5940" stroke-width="1.51"/><path d="M1349,513L1366,583L1457,491Z" fill="#ed5038" stroke="#ed5038" stroke-width="1.51"/><path d="M1354,128L1447,192L1469,109Z" fill="#f17d63" stroke="#f17d63" stroke-width="1.51"/><path d="M1375,-21L1354,128L1469,109Z" fill="#f5856c" stroke="#f5856c" stroke-width="1.51"/><path d="M1380,-153L1438,-61L1471,-132Z" fill="#f7937e" stroke="#f7937e" stroke-width="1.51"/><path d="M1353,803L1324,989L1441,835Z" fill="#d92823" stroke="#d92823" stroke-width="1.51"/><path d="M1366,583L1403,753L1450,635Z" fill="#e93e2d" stroke="#e93e2d" stroke-width="1.51"/><path d="M1324,989L1364,1129L1457,1082Z" fill="#c6201e" stroke="#c6201e" stroke-width="1.51"/><path d="M1403,753L1353,803L1441,835Z" fill="#e02e25" stroke="#e02e25" stroke-width="1.51"/><path d="M1354,128L1295,260L1447,192Z" fill="#f37a5e" stroke="#f37a5e" stroke-width="1.51"/><path d="M1380,-153L1375,-21L1438,-61Z" fill="#f8927c" stroke="#f8927c" stroke-width="1.51"/><path d="M1366,583L1246,651L1403,753Z" fill="#ec412f" stroke="#ec412f" stroke-width="1.51"/><path d="M1253,-113L1375,-21L1380,-153Z" fill="#fc967f" stroke="#fc967f" stroke-width="1.51"/><path d="M1246,651L1324,775L1403,753Z" fill="#eb382a" stroke="#eb382a" stroke-width="1.51"/><path d="M1324,775L1353,803L1403,753Z" fill="#e33227" stroke="#e33227" stroke-width="1.51"/><path d="M1208,795L1175,956L1324,989Z" fill="#dd2e25" stroke="#dd2e25" stroke-width="1.51"/><path d="M1208,795L1324,989L1353,803Z" fill="#df2d25" stroke="#df2d25" stroke-width="1.51"/><path d="M1254,239L1295,260L1354,128Z" fill="#f77b5f" stroke="#f77b5f" stroke-width="1.51"/><path d="M1324,989L1198,1074L1364,1129Z" fill="#cb2520" stroke="#cb2520" stroke-width="1.51"/><path d="M1162,-20L1354,128L1375,-21Z" fill="#fc8e74" stroke="#fc8e74" stroke-width="1.51"/><path d="M1198,1074L1309,1172L1364,1129Z" fill="#c3241f" stroke="#c3241f" stroke-width="1.51"/><path d="M1253,-113L1162,-20L1375,-21Z" fill="#ff967e" stroke="#ff967e" stroke-width="1.51"/><path d="M1324,775L1208,795L1353,803Z" fill="#e63428" stroke="#e63428" stroke-width="1.51"/><path d="M1162,-20L1183,160L1354,128Z" fill="#fd8b70" stroke="#fd8b70" stroke-width="1.51"/><path d="M1349,513L1246,651L1366,583Z" fill="#f04c36" stroke="#f04c36" stroke-width="1.51"/><path d="M1301,387L1194,477L1349,513Z" fill="#f55d43" stroke="#f55d43" stroke-width="1.51"/><path d="M1194,477L1246,651L1349,513Z" fill="#f5533a" stroke="#f5533a" stroke-width="1.51"/><path d="M1183,160L1254,239L1354,128Z" fill="#f98063" stroke="#f98063" stroke-width="1.51"/><path d="M887,-178L1011,-128L1039,-125Z" fill="#ffad94" stroke="#ffad94" stroke-width="1.51"/><path d="M1295,260L1167,362L1301,387Z" fill="#f76d50" stroke="#f76d50" stroke-width="1.51"/><path d="M1175,956L1198,1074L1324,989Z" fill="#d42c23" stroke="#d42c23" stroke-width="1.51"/><path d="M1246,651L1205,745L1324,775Z" fill="#ef3c2d" stroke="#ef3c2d" stroke-width="1.51"/><path d="M1205,745L1208,795L1324,775Z" fill="#ea392a" stroke="#ea392a" stroke-width="1.51"/><path d="M1254,239L1167,362L1295,260Z" fill="#f97557" stroke="#f97557" stroke-width="1.51"/><path d="M1198,1074L1207,1222L1309,1172Z" fill="#c02620" stroke="#c02620" stroke-width="1.51"/><path d="M1167,362L1194,477L1301,387Z" fill="#f7684b" stroke="#f7684b" stroke-width="1.51"/><path d="M1162,-20L1092,54L1183,160Z" fill="#ff9377" stroke="#ff9377" stroke-width="1.51"/><path d="M1194,477L1087,509L1246,651Z" fill="#f75a3e" stroke="#f75a3e" stroke-width="1.51"/><path d="M1087,509L1052,556L1246,651Z" fill="#f75a3f" stroke="#f75a3f" stroke-width="1.51"/><path d="M1039,-125L1110,-73L1253,-113Z" fill="#ffa189" stroke="#ffa189" stroke-width="1.51"/><path d="M1110,-73L1162,-20L1253,-113Z" fill="#ff9d84" stroke="#ff9d84" stroke-width="1.51"/><path d="M1183,160L1136,194L1254,239Z" fill="#fb8265" stroke="#fb8265" stroke-width="1.51"/><path d="M1136,194L1167,362L1254,239Z" fill="#fa7a5d" stroke="#fa7a5d" stroke-width="1.51"/><path d="M1030,726L1205,745L1246,651Z" fill="#f24732" stroke="#f24732" stroke-width="1.51"/><path d="M1052,556L1030,726L1246,651Z" fill="#f5533a" stroke="#f5533a" stroke-width="1.51"/><path d="M1167,362L1096,398L1194,477Z" fill="#f86c4d" stroke="#f86c4d" stroke-width="1.51"/><path d="M1175,956L1113,989L1198,1074Z" fill="#d53327" stroke="#d53327" stroke-width="1.51"/><path d="M1198,1074L1075,1072L1207,1222Z" fill="#c82f24" stroke="#c82f24" stroke-width="1.51"/><path d="M1075,1072L1050,1264L1207,1222Z" fill="#be3126" stroke="#be3126" stroke-width="1.51"/><path d="M1043,874L1175,956L1208,795Z" fill="#e43a2c" stroke="#e43a2c" stroke-width="1.51"/><path d="M1205,745L1030,726L1208,795Z" fill="#ef4330" stroke="#ef4330" stroke-width="1.51"/><path d="M1030,726L1043,874L1208,795Z" fill="#ec4531" stroke="#ec4531" stroke-width="1.51"/><path d="M1113,989L1075,1072L1198,1074Z" fill="#d23528" stroke="#d23528" stroke-width="1.51"/><path d="M1136,194L1096,398L1167,362Z" fill="#fa7859" stroke="#fa7859" stroke-width="1.51"/><path d="M1096,398L1087,509L1194,477Z" fill="#f9684a" stroke="#f9684a" stroke-width="1.51"/><path d="M1043,874L1113,989L1175,956Z" fill="#dd392b" stroke="#dd392b" stroke-width="1.51"/><path d="M1092,54L1136,194L1183,160Z" fill="#fd8c6f" stroke="#fd8c6f" stroke-width="1.51"/><path d="M976,1187L1050,1264L1075,1072Z" fill="#c13829" stroke="#c13829" stroke-width="1.51"/><path d="M922,248L1096,398L1136,194Z" fill="#fc8162" stroke="#fc8162" stroke-width="1.51"/><path d="M1110,-73L1092,54L1162,-20Z" fill="#ff9c82" stroke="#ff9c82" stroke-width="1.51"/><path d="M365,1226L54,1225L424,1238Z" fill="#be6b5a" stroke="#be6b5a" stroke-width="1.51"/><path d="M922,248L938,371L1096,398Z" fill="#fc7e5e" stroke="#fc7e5e" stroke-width="1.51"/><path d="M988,-25L1092,54L1110,-73Z" fill="#ffa085" stroke="#ffa085" stroke-width="1.51"/><path d="M1092,54L994,73L1136,194Z" fill="#fe9376" stroke="#fe9376" stroke-width="1.51"/><path d="M994,73L922,248L1136,194Z" fill="#fd9071" stroke="#fd9071" stroke-width="1.51"/><path d="M961,605L1030,726L1052,556Z" fill="#f85c40" stroke="#f85c40" stroke-width="1.51"/><path d="M988,959L1075,1072L1113,989Z" fill="#d73c2c" stroke="#d73c2c" stroke-width="1.51"/><path d="M1043,874L988,959L1113,989Z" fill="#df3f2e" stroke="#df3f2e" stroke-width="1.51"/><path d="M1039,-125L988,-25L1110,-73Z" fill="#ffa58b" stroke="#ffa58b" stroke-width="1.51"/><path d="M964,1097L976,1187L1075,1072Z" fill="#cb3d2c" stroke="#cb3d2c" stroke-width="1.51"/><path d="M988,-25L994,73L1092,54Z" fill="#ff9e81" stroke="#ff9e81" stroke-width="1.51"/><path d="M921,478L1087,509L1096,398Z" fill="#fa6d4e" stroke="#fa6d4e" stroke-width="1.51"/><path d="M938,371L921,478L1096,398Z" fill="#fb7655" stroke="#fb7655" stroke-width="1.51"/><path d="M921,478L1052,556L1087,509Z" fill="#fa6949" stroke="#fa6949" stroke-width="1.51"/><path d="M1011,-128L988,-25L1039,-125Z" fill="#ffa88f" stroke="#ffa88f" stroke-width="1.51"/><path d="M1030,726L904,775L1043,874Z" fill="#ef4e37" stroke="#ef4e37" stroke-width="1.51"/><path d="M988,959L964,1097L1075,1072Z" fill="#d53f2e" stroke="#d53f2e" stroke-width="1.51"/><path d="M880,108L922,248L994,73Z" fill="#ff987a" stroke="#ff987a" stroke-width="1.51"/><path d="M904,775L938,903L1043,874Z" fill="#e94c36" stroke="#e94c36" stroke-width="1.51"/><path d="M976,1187L812,1281L1050,1264Z" fill="#b73b2c" stroke="#b73b2c" stroke-width="1.51"/><path d="M921,478L961,605L1052,556Z" fill="#fb6948" stroke="#fb6948" stroke-width="1.51"/><path d="M938,903L988,959L1043,874Z" fill="#e34532" stroke="#e34532" stroke-width="1.51"/><path d="M961,605L904,775L1030,726Z" fill="#f6573c" stroke="#f6573c" stroke-width="1.51"/><path d="M922,248L883,313L938,371Z" fill="#fd8766" stroke="#fd8766" stroke-width="1.51"/><path d="M851,671L904,775L961,605Z" fill="#f75e42" stroke="#f75e42" stroke-width="1.51"/><path d="M866,1032L964,1097L988,959Z" fill="#d84532" stroke="#d84532" stroke-width="1.51"/><path d="M887,-178L988,-25L1011,-128Z" fill="#ffac93" stroke="#ffac93" stroke-width="1.51"/><path d="M921,478L868,527L961,605Z" fill="#fb6e4d" stroke="#fb6e4d" stroke-width="1.51"/><path d="M887,-178L807,-27L988,-25Z" fill="#ffae95" stroke="#ffae95" stroke-width="1.51"/><path d="M807,-27L880,108L988,-25Z" fill="#ffa78c" stroke="#ffa78c" stroke-width="1.51"/><path d="M988,-25L880,108L994,73Z" fill="#ffa083" stroke="#ffa083" stroke-width="1.51"/><path d="M938,903L866,1032L988,959Z" fill="#de4834" stroke="#de4834" stroke-width="1.51"/><path d="M964,1097L801,1098L976,1187Z" fill="#cb4431" stroke="#cb4431" stroke-width="1.51"/><path d="M801,1098L812,1281L976,1187Z" fill="#c14533" stroke="#c14533" stroke-width="1.51"/><path d="M868,527L847,584L961,605Z" fill="#fb6c4c" stroke="#fb6c4c" stroke-width="1.51"/><path d="M847,584L851,671L961,605Z" fill="#f96648" stroke="#f96648" stroke-width="1.51"/><path d="M866,1032L801,1098L964,1097Z" fill="#d34934" stroke="#d34934" stroke-width="1.51"/><path d="M548,1204L424,1238L812,1281Z" fill="#ba5543" stroke="#ba5543" stroke-width="1.51"/><path d="M801,1098L755,1223L812,1281Z" fill="#bf4a37" stroke="#bf4a37" stroke-width="1.51"/><path d="M599,-203L758,-123L887,-178Z" fill="#ffbca6" stroke="#ffbca6" stroke-width="1.51"/><path d="M880,108L854,253L922,248Z" fill="#fe9575" stroke="#fe9575" stroke-width="1.51"/><path d="M883,313L921,478L938,371Z" fill="#fc7e5d" stroke="#fc7e5d" stroke-width="1.51"/><path d="M904,775L802,873L938,903Z" fill="#ea523b" stroke="#ea523b" stroke-width="1.51"/><path d="M802,873L866,1032L938,903Z" fill="#e24e38" stroke="#e24e38" stroke-width="1.51"/><path d="M692,393L868,527L883,313Z" fill="#fc8261" stroke="#fc8261" stroke-width="1.51"/><path d="M758,-123L807,-27L887,-178Z" fill="#ffb59d" stroke="#ffb59d" stroke-width="1.51"/><path d="M883,313L868,527L921,478Z" fill="#fc7a59" stroke="#fc7a59" stroke-width="1.51"/><path d="M854,253L883,313L922,248Z" fill="#fd8d6d" stroke="#fd8d6d" stroke-width="1.51"/><path d="M692,393L690,472L868,527Z" fill="#fc8160" stroke="#fc8160" stroke-width="1.51"/><path d="M724,187L854,253L880,108Z" fill="#fd9b7c" stroke="#fd9b7c" stroke-width="1.51"/><path d="M851,671L709,736L904,775Z" fill="#f65f44" stroke="#f65f44" stroke-width="1.51"/><path d="M709,736L802,873L904,775Z" fill="#f05c43" stroke="#f05c43" stroke-width="1.51"/><path d="M807,-27L676,122L880,108Z" fill="#ffa98d" stroke="#ffa98d" stroke-width="1.51"/><path d="M854,253L692,393L883,313Z" fill="#fc8c6c" stroke="#fc8c6c" stroke-width="1.51"/><path d="M707,895L670,968L802,873Z" fill="#e55a42" stroke="#e55a42" stroke-width="1.51"/><path d="M802,873L670,968L866,1032Z" fill="#e0543d" stroke="#e0543d" stroke-width="1.51"/><path d="M676,122L724,187L880,108Z" fill="#fea486" stroke="#fea486" stroke-width="1.51"/><path d="M754,1116L755,1223L801,1098Z" fill="#c94e39" stroke="#c94e39" stroke-width="1.51"/><path d="M847,584L755,628L851,671Z" fill="#f96b4c" stroke="#f96b4c" stroke-width="1.51"/><path d="M670,968L801,1098L866,1032Z" fill="#d8523c" stroke="#d8523c" stroke-width="1.51"/><path d="M690,472L847,584L868,527Z" fill="#fc7756" stroke="#fc7756" stroke-width="1.51"/><path d="M690,472L755,628L847,584Z" fill="#fb7655" stroke="#fb7655" stroke-width="1.51"/><path d="M755,628L709,736L851,671Z" fill="#f8694b" stroke="#f8694b" stroke-width="1.51"/><path d="M724,187L692,393L854,253Z" fill="#fd9575" stroke="#fd9575" stroke-width="1.51"/><path d="M755,1223L548,1204L812,1281Z" fill="#b94e3b" stroke="#b94e3b" stroke-width="1.51"/><path d="M623,252L692,393L724,187Z" fill="#fd9a7a" stroke="#fd9a7a" stroke-width="1.51"/><path d="M670,968L754,1116L801,1098Z" fill="#d5543d" stroke="#d5543d" stroke-width="1.51"/><path d="M709,736L707,895L802,873Z" fill="#ec5e45" stroke="#ec5e45" stroke-width="1.51"/><path d="M657,-46L676,122L807,-27Z" fill="#ffb299" stroke="#ffb299" stroke-width="1.51"/><path d="M758,-123L657,-46L807,-27Z" fill="#ffb79f" stroke="#ffb79f" stroke-width="1.51"/><path d="M218,-166L388,-138L599,-203Z" fill="#ffd3c1" stroke="#ffd3c1" stroke-width="1.51"/><path d="M670,968L567,1119L754,1116Z" fill="#d55942" stroke="#d55942" stroke-width="1.51"/><path d="M640,627L709,736L755,628Z" fill="#f96f51" stroke="#f96f51" stroke-width="1.51"/><path d="M690,472L640,627L755,628Z" fill="#fb7959" stroke="#fb7959" stroke-width="1.51"/><path d="M754,1116L567,1119L755,1223Z" fill="#c8533e" stroke="#c8533e" stroke-width="1.51"/><path d="M567,1119L548,1204L755,1223Z" fill="#c35742" stroke="#c35742" stroke-width="1.51"/><path d="M620,-64L657,-46L758,-123Z" fill="#ffbba4" stroke="#ffbba4" stroke-width="1.51"/><path d="M599,-203L620,-64L758,-123Z" fill="#ffc0aa" stroke="#ffc0aa" stroke-width="1.51"/><path d="M657,-46L582,95L676,122Z" fill="#ffb399" stroke="#ffb399" stroke-width="1.51"/><path d="M586,529L640,627L690,472Z" fill="#fc8060" stroke="#fc8060" stroke-width="1.51"/><path d="M623,252L616,382L692,393Z" fill="#fc9574" stroke="#fc9574" stroke-width="1.51"/><path d="M564,829L707,895L709,736Z" fill="#ee654a" stroke="#ee654a" stroke-width="1.51"/><path d="M676,122L623,252L724,187Z" fill="#fda485" stroke="#fda485" stroke-width="1.51"/><path d="M565,986L567,1119L670,968Z" fill="#db6048" stroke="#db6048" stroke-width="1.51"/><path d="M640,627L587,690L709,736Z" fill="#f87154" stroke="#f87154" stroke-width="1.51"/><path d="M587,690L564,829L709,736Z" fill="#f56d51" stroke="#f56d51" stroke-width="1.51"/><path d="M564,829L670,968L707,895Z" fill="#e76148" stroke="#e76148" stroke-width="1.51"/><path d="M564,829L565,986L670,968Z" fill="#e5634a" stroke="#e5634a" stroke-width="1.51"/><path d="M582,95L623,252L676,122Z" fill="#fdaa8d" stroke="#fdaa8d" stroke-width="1.51"/><path d="M616,382L690,472L692,393Z" fill="#fc8c6b" stroke="#fc8c6b" stroke-width="1.51"/><path d="M616,382L586,529L690,472Z" fill="#fc8a69" stroke="#fc8a69" stroke-width="1.51"/><path d="M620,-64L582,95L657,-46Z" fill="#ffbba2" stroke="#ffbba2" stroke-width="1.51"/><path d="M388,-138L490,-139L599,-203Z" fill="#ffcdba" stroke="#ffcdba" stroke-width="1.51"/><path d="M500,28L582,95L620,-64Z" fill="#ffbca3" stroke="#ffbca3" stroke-width="1.51"/><path d="M161,1200L54,1225L365,1226Z" fill="#c27161" stroke="#c27161" stroke-width="1.51"/><path d="M500,510L586,529L616,382Z" fill="#fd8c6c" stroke="#fd8c6c" stroke-width="1.51"/><path d="M599,-203L490,-139L620,-64Z" fill="#ffc6b2" stroke="#ffc6b2" stroke-width="1.51"/><path d="M582,95L488,231L623,252Z" fill="#fdab8d" stroke="#fdab8d" stroke-width="1.51"/><path d="M476,325L616,382L623,252Z" fill="#fd9c7d" stroke="#fd9c7d" stroke-width="1.51"/><path d="M510,596L587,690L640,627Z" fill="#fb7b5c" stroke="#fb7b5c" stroke-width="1.51"/><path d="M586,529L510,596L640,627Z" fill="#fc8061" stroke="#fc8061" stroke-width="1.51"/><path d="M564,829L511,974L565,986Z" fill="#e5674e" stroke="#e5674e" stroke-width="1.51"/><path d="M488,231L476,325L623,252Z" fill="#fda587" stroke="#fda587" stroke-width="1.51"/><path d="M476,325L500,510L616,382Z" fill="#fd9677" stroke="#fd9677" stroke-width="1.51"/><path d="M490,-139L500,28L620,-64Z" fill="#ffc4ae" stroke="#ffc4ae" stroke-width="1.51"/><path d="M490,820L564,829L587,690Z" fill="#f47055" stroke="#f47055" stroke-width="1.51"/><path d="M565,986L511,974L567,1119Z" fill="#db644c" stroke="#db644c" stroke-width="1.51"/><path d="M490,820L511,974L564,829Z" fill="#eb6c52" stroke="#eb6c52" stroke-width="1.51"/><path d="M500,28L488,231L582,95Z" fill="#fdb59a" stroke="#fdb59a" stroke-width="1.51"/><path d="M500,510L510,596L586,529Z" fill="#fd8868" stroke="#fd8868" stroke-width="1.51"/><path d="M510,596L414,729L587,690Z" fill="#fb7d5f" stroke="#fb7d5f" stroke-width="1.51"/><path d="M414,729L490,820L587,690Z" fill="#f7775a" stroke="#f7775a" stroke-width="1.51"/><path d="M490,1155L548,1204L567,1119Z" fill="#c95e49" stroke="#c95e49" stroke-width="1.51"/><path d="M511,974L490,1155L567,1119Z" fill="#d5644c" stroke="#d5644c" stroke-width="1.51"/><path d="M405,45L488,231L500,28Z" fill="#fdbba1" stroke="#fdbba1" stroke-width="1.51"/><path d="M405,45L386,202L488,231Z" fill="#fdb89c" stroke="#fdb89c" stroke-width="1.51"/><path d="M490,1155L424,1238L548,1204Z" fill="#c25f4c" stroke="#c25f4c" stroke-width="1.51"/><path d="M476,325L370,524L500,510Z" fill="#fe9778" stroke="#fe9778" stroke-width="1.51"/><path d="M490,-139L388,-138L500,28Z" fill="#ffcbb6" stroke="#ffcbb6" stroke-width="1.51"/><path d="M388,-138L405,45L500,28Z" fill="#ffc9b4" stroke="#ffc9b4" stroke-width="1.51"/><path d="M326,603L414,729L510,596Z" fill="#fc8668" stroke="#fc8668" stroke-width="1.51"/><path d="M500,510L370,524L510,596Z" fill="#fe8d6d" stroke="#fe8d6d" stroke-width="1.51"/><path d="M288,940L326,1124L511,974Z" fill="#de7159" stroke="#de7159" stroke-width="1.51"/><path d="M323,905L288,940L511,974Z" fill="#e6745b" stroke="#e6745b" stroke-width="1.51"/><path d="M490,820L323,905L511,974Z" fill="#e97157" stroke="#e97157" stroke-width="1.51"/><path d="M326,1124L490,1155L511,974Z" fill="#d66a52" stroke="#d66a52" stroke-width="1.51"/><path d="M370,524L326,603L510,596Z" fill="#fd8e6f" stroke="#fd8e6f" stroke-width="1.51"/><path d="M289,335L370,524L476,325Z" fill="#fda184" stroke="#fda184" stroke-width="1.51"/><path d="M386,202L476,325L488,231Z" fill="#fdac8f" stroke="#fdac8f" stroke-width="1.51"/><path d="M414,729L337,745L490,820Z" fill="#f67c5f" stroke="#f67c5f" stroke-width="1.51"/><path d="M337,745L323,905L490,820Z" fill="#f17a5f" stroke="#f17a5f" stroke-width="1.51"/><path d="M365,1226L424,1238L490,1155Z" fill="#c16350" stroke="#c16350" stroke-width="1.51"/><path d="M326,1124L365,1226L490,1155Z" fill="#c86854" stroke="#c86854" stroke-width="1.51"/><path d="M388,-138L332,28L405,45Z" fill="#fecdb9" stroke="#fecdb9" stroke-width="1.51"/><path d="M386,202L289,335L476,325Z" fill="#fdad90" stroke="#fdad90" stroke-width="1.51"/><path d="M288,940L250,1062L326,1124Z" fill="#dc765f" stroke="#dc765f" stroke-width="1.51"/><path d="M289,335L267,493L370,524Z" fill="#ffa183" stroke="#ffa183" stroke-width="1.51"/><path d="M295,108L386,202L405,45Z" fill="#fdc0a7" stroke="#fdc0a7" stroke-width="1.51"/><path d="M326,603L337,745L414,729Z" fill="#fb8669" stroke="#fb8669" stroke-width="1.51"/><path d="M332,28L295,108L405,45Z" fill="#fdc7b0" stroke="#fdc7b0" stroke-width="1.51"/><path d="M218,-166L263,35L332,28Z" fill="#fed4c2" stroke="#fed4c2" stroke-width="1.51"/><path d="M178,271L289,335L386,202Z" fill="#feb59a" stroke="#feb59a" stroke-width="1.51"/><path d="M218,-166L332,28L388,-138Z" fill="#ffd5c3" stroke="#ffd5c3" stroke-width="1.51"/><path d="M295,108L178,271L386,202Z" fill="#fdbda4" stroke="#fdbda4" stroke-width="1.51"/><path d="M181,806L323,905L337,745Z" fill="#f38167" stroke="#f38167" stroke-width="1.51"/><path d="M326,603L209,686L337,745Z" fill="#fc8b6f" stroke="#fc8b6f" stroke-width="1.51"/><path d="M267,493L326,603L370,524Z" fill="#ff9778" stroke="#ff9778" stroke-width="1.51"/><path d="M178,271L191,296L289,335Z" fill="#ffb69c" stroke="#ffb69c" stroke-width="1.51"/><path d="M326,1124L161,1200L365,1226Z" fill="#c76e5b" stroke="#c76e5b" stroke-width="1.51"/><path d="M-44,-189L49,-147L218,-166Z" fill="#ffe7dd" stroke="#ffe7dd" stroke-width="1.51"/><path d="M262,102L178,271L295,108Z" fill="#fdc3ab" stroke="#fdc3ab" stroke-width="1.51"/><path d="M267,493L218,587L326,603Z" fill="#ff987b" stroke="#ff987b" stroke-width="1.51"/><path d="M263,35L295,108L332,28Z" fill="#fecab4" stroke="#fecab4" stroke-width="1.51"/><path d="M209,686L181,806L337,745Z" fill="#fb886e" stroke="#fb886e" stroke-width="1.51"/><path d="M181,806L288,940L323,905Z" fill="#ed7e65" stroke="#ed7e65" stroke-width="1.51"/><path d="M218,587L209,686L326,603Z" fill="#fe9376" stroke="#fe9376" stroke-width="1.51"/><path d="M250,1062L161,1200L326,1124Z" fill="#d27460" stroke="#d27460" stroke-width="1.51"/><path d="M263,35L262,102L295,108Z" fill="#fec9b3" stroke="#fec9b3" stroke-width="1.51"/><path d="M115,129L178,271L262,102Z" fill="#fdc6af" stroke="#fdc6af" stroke-width="1.51"/><path d="M218,-166L96,-33L263,35Z" fill="#fedaca" stroke="#fedaca" stroke-width="1.51"/><path d="M191,296L89,377L267,493Z" fill="#ffaf94" stroke="#ffaf94" stroke-width="1.51"/><path d="M178,953L250,1062L288,940Z" fill="#e47b64" stroke="#e47b64" stroke-width="1.51"/><path d="M181,806L178,953L288,940Z" fill="#ed8069" stroke="#ed8069" stroke-width="1.51"/><path d="M191,296L267,493L289,335Z" fill="#feac90" stroke="#feac90" stroke-width="1.51"/><path d="M115,129L140,255L178,271Z" fill="#fec4ac" stroke="#fec4ac" stroke-width="1.51"/><path d="M115,129L262,102L263,35Z" fill="#feccb7" stroke="#feccb7" stroke-width="1.51"/><path d="M33,530L218,587L267,493Z" fill="#ffa185" stroke="#ffa185" stroke-width="1.51"/><path d="M89,377L33,530L267,493Z" fill="#ffaa90" stroke="#ffaa90" stroke-width="1.51"/><path d="M96,-33L115,129L263,35Z" fill="#fed4c2" stroke="#fed4c2" stroke-width="1.51"/><path d="M178,953L105,1006L250,1062Z" fill="#e27e68" stroke="#e27e68" stroke-width="1.51"/><path d="M105,1006L161,1200L250,1062Z" fill="#d97b66" stroke="#d97b66" stroke-width="1.51"/><path d="M105,1006L40,1090L161,1200Z" fill="#da7f6b" stroke="#da7f6b" stroke-width="1.51"/><path d="M57,883L178,953L181,806Z" fill="#f0866f" stroke="#f0866f" stroke-width="1.51"/><path d="M65,757L181,806L209,686Z" fill="#fc8e74" stroke="#fc8e74" stroke-width="1.51"/><path d="M43,637L209,686L218,587Z" fill="#ff987d" stroke="#ff987d" stroke-width="1.51"/><path d="M33,530L43,637L218,587Z" fill="#ffa186" stroke="#ffa186" stroke-width="1.51"/><path d="M49,-147L96,-33L218,-166Z" fill="#ffe2d5" stroke="#ffe2d5" stroke-width="1.51"/><path d="M43,637L65,757L209,686Z" fill="#ff967c" stroke="#ff967c" stroke-width="1.51"/><path d="M178,271L140,255L191,296Z" fill="#ffbba3" stroke="#ffbba3" stroke-width="1.51"/><path d="M140,255L89,377L191,296Z" fill="#ffbaa1" stroke="#ffbaa1" stroke-width="1.51"/><path d="M65,757L57,883L181,806Z" fill="#f78d75" stroke="#f78d75" stroke-width="1.51"/><path d="M57,883L105,1006L178,953Z" fill="#e9846f" stroke="#e9846f" stroke-width="1.51"/><path d="M40,1090L54,1225L161,1200Z" fill="#cc7b6a" stroke="#cc7b6a" stroke-width="1.51"/><path d="M96,-33L-67,46L115,129Z" fill="#fedaca" stroke="#fedaca" stroke-width="1.51"/><path d="M115,129L-86,197L140,255Z" fill="#fecbb6" stroke="#fecbb6" stroke-width="1.51"/><path d="M-86,197L89,377L140,255Z" fill="#ffc3ac" stroke="#ffc3ac" stroke-width="1.51"/><path d="M-86,197L-91,367L89,377Z" fill="#ffc1ab" stroke="#ffc1ab" stroke-width="1.51"/><path d="M-67,46L-86,197L115,129Z" fill="#fed4c3" stroke="#fed4c3" stroke-width="1.51"/><path d="M-64,476L33,530L89,377Z" fill="#ffb197" stroke="#ffb197" stroke-width="1.51"/><path d="M57,883L-82,987L105,1006Z" fill="#e98873" stroke="#e98873" stroke-width="1.51"/><path d="M-82,987L40,1090L105,1006Z" fill="#e28572" stroke="#e28572" stroke-width="1.51"/><path d="M49,-147L-82,11L96,-33Z" fill="#fee4d7" stroke="#fee4d7" stroke-width="1.51"/><path d="M-82,11L-67,46L96,-33Z" fill="#fee0d2" stroke="#fee0d2" stroke-width="1.51"/><path d="M-74,822L57,883L65,757Z" fill="#f7917a" stroke="#f7917a" stroke-width="1.51"/><path d="M-91,367L-64,476L89,377Z" fill="#ffb79f" stroke="#ffb79f" stroke-width="1.51"/><path d="M-82,987L-54,1086L40,1090Z" fill="#e08673" stroke="#e08673" stroke-width="1.51"/><path d="M-54,1086L-29,1230L40,1090Z" fill="#d48270" stroke="#d48270" stroke-width="1.51"/><path d="M33,530L-53,566L43,637Z" fill="#ffa68c" stroke="#ffa68c" stroke-width="1.51"/><path d="M-44,-189L-82,11L49,-147Z" fill="#ffe8de" stroke="#ffe8de" stroke-width="1.51"/><path d="M40,1090L-29,1230L54,1225Z" fill="#cb7d6d" stroke="#cb7d6d" stroke-width="1.51"/><path d="M43,637L-73,768L65,757Z" fill="#ff987f" stroke="#ff987f" stroke-width="1.51"/><path d="M-73,768L-74,822L65,757Z" fill="#fc957e" stroke="#fc957e" stroke-width="1.51"/><path d="M-74,822L-82,987L57,883Z" fill="#f18d78" stroke="#f18d78" stroke-width="1.51"/><path d="M-131,618L-73,768L43,637Z" fill="#ff9f86" stroke="#ff9f86" stroke-width="1.51"/><path d="M-53,566L-131,618L43,637Z" fill="#ffa58c" stroke="#ffa58c" stroke-width="1.51"/><path d="M-64,476L-53,566L33,530Z" fill="#ffac92" stroke="#ffac92" stroke-width="1.51"/><path d="M-163,294L-91,367L-86,197Z" fill="#ffc7b2" stroke="#ffc7b2" stroke-width="1.51"/><path d="M-161,111L-86,197L-67,46Z" fill="#ffd8c8" stroke="#ffd8c8" stroke-width="1.51"/><path d="M-186,-20L-82,11L-44,-189Z" fill="#ffe8de" stroke="#ffe8de" stroke-width="1.51"/><path d="M-209,-158L-186,-20L-44,-189Z" fill="#ffede5" stroke="#ffede5" stroke-width="1.51"/><path d="M-54,1086L-181,1184L-29,1230Z" fill="#cf8273" stroke="#cf8273" stroke-width="1.51"/><path d="M-216,938L-82,987L-74,822Z" fill="#f08f7c" stroke="#f08f7c" stroke-width="1.51"/><path d="M-180,1082L-181,1184L-54,1086Z" fill="#d98776" stroke="#d98776" stroke-width="1.51"/><path d="M-64,476L-148,519L-53,566Z" fill="#ffae96" stroke="#ffae96" stroke-width="1.51"/><path d="M-200,812L-216,938L-74,822Z" fill="#f69480" stroke="#f69480" stroke-width="1.51"/><path d="M-131,618L-190,768L-73,768Z" fill="#ff9d86" stroke="#ff9d86" stroke-width="1.51"/><path d="M-82,987L-180,1082L-54,1086Z" fill="#e18977" stroke="#e18977" stroke-width="1.51"/><path d="M-148,519L-131,618L-53,566Z" fill="#ffab92" stroke="#ffab92" stroke-width="1.51"/><path d="M-91,367L-148,519L-64,476Z" fill="#ffb69e" stroke="#ffb69e" stroke-width="1.51"/><path d="M-82,11L-161,111L-67,46Z" fill="#ffded0" stroke="#ffded0" stroke-width="1.51"/><path d="M-190,768L-200,812L-74,822Z" fill="#fc9883" stroke="#fc9883" stroke-width="1.51"/><path d="M-190,768L-74,822L-73,768Z" fill="#fd9881" stroke="#fd9881" stroke-width="1.51"/><path d="M-161,111L-204,176L-86,197Z" fill="#ffd6c5" stroke="#ffd6c5" stroke-width="1.51"/><path d="M-204,176L-163,294L-86,197Z" fill="#ffcfbc" stroke="#ffcfbc" stroke-width="1.51"/><path d="M-186,-20L-161,111L-82,11Z" fill="#ffe2d5" stroke="#ffe2d5" stroke-width="1.51"/><path d="M-216,938L-180,1082L-82,987Z" fill="#e78d7b" stroke="#e78d7b" stroke-width="1.51"/><path d="M-163,294L-148,519L-91,367Z" fill="#ffbda6" stroke="#ffbda6" stroke-width="1.51"/><path d="M-148,519L-190,768L-131,618Z" fill="#ffa68f" stroke="#ffa68f" stroke-width="1.51"/><path d="M-163,294L-204,176L-148,519Z" fill="#ffc4b0" stroke="#ffc4b0" stroke-width="1.51"/><path d="M-204,176L-190,768L-148,519Z" fill="#ffb59e" stroke="#ffb59e" stroke-width="1.51"/><path d="M-186,-20L-204,176L-161,111Z" fill="#ffded0" stroke="#ffded0" stroke-width="1.51"/><path d="M-204,176L-200,812L-190,768Z" fill="#ffac95" stroke="#ffac95" stroke-width="1.51"/><path d="M-216,938L-181,1184L-180,1082Z" fill="#e08c7a" stroke="#e08c7a" stroke-width="1.51"/><path d="M-204,176L-216,938L-200,812Z" fill="#ffa791" stroke="#ffa791" stroke-width="1.51"/><path d="M-209,-158L-204,176L-186,-20Z" fill="#ffe7dc" stroke="#ffe7dc" stroke-width="1.51"/><path d="M-209,-158L-216,938L-204,176Z" fill="#ffc7b3" stroke="#ffc7b3" stroke-width="1.51"/></svg>