<svg xmlns="http://www.w3.org/2000/svg" width="1500" height="500"><path d="M-94,1231L-197,1217L214,1294Z" fill="#c67c6d" stroke="#c67c6d" stroke-width="1.51"/><path d="M392,-231L534,-221L651,-220Z" fill="#ffcab7" stroke="#ffcab7" stroke-width="1.51"/><path d="M392,-231L651,-220L957,-224Z" fill="#ffc1ac" stroke="#ffc1ac" stroke-width="1.51"/><path d="M986,1305L682,1308L1512,1309Z" fill="#b13126" stroke="#b13126" stroke-width="1.51"/><path d="M392,-231L957,-224L1734,-222Z" fill="#ffac94" stroke="#ffac94" stroke-width="1.51"/><path d="M957,-224L1379,-212L1734,-222Z" fill="#fe9a85" stroke="#fe9a85" stroke-width="1.51"/><path d="M1734,-222L1871,-155L2012,-135Z" fill="#dc8775" stroke="#dc8775" stroke-width="1.51"/><path d="M1972,232L2085,272L2115,59Z" fill="#c1634f" stroke="#c1634f" stroke-width="1.51"/><path d="M1948,132L1972,232L2115,59Z" fill="#c66955" stroke="#c66955" stroke-width="1.51"/><path d="M2012,-135L2001,-56L2140,-7Z" fill="#c77a6b" stroke="#c77a6b" stroke-width="1.51"/><path d="M2093,1005L2117,1124L2145,854Z" fill="#9a0a16" stroke="#9a0a16" stroke-width="1.51"/><path d="M1955,734L2145,854L2152,689Z" fill="#b21f1d" stroke="#b21f1d" stroke-width="1.51"/><path d="M1985,501L2085,572L2154,367Z" fill="#bc4332" stroke="#bc4332" stroke-width="1.51"/><path d="M2140,-7L2115,59L2154,367Z" fill="#b86453" stroke="#b86453" stroke-width="1.51"/><path d="M2115,59L2085,272L2154,367Z" fill="#b95b49" stroke="#b95b49" stroke-width="1.51"/><path d="M2085,572L2152,689L2154,367Z" fill="#b5392b" stroke="#b5392b" stroke-width="1.51"/><path d="M1734,-222L2012,-135L2167,-138Z" fill="#d18373" stroke="#d18373" stroke-width="1.51"/><path d="M2012,-135L2140,-7L2167,-138Z" fill="#c1796b" stroke="#c1796b" stroke-width="1.51"/><path d="M2140,-7L2154,367L2167,-138Z" fill="#b86959" stroke="#b86959" stroke-width="1.51"/><path d="M1999,1222L1828,1308L2171,1284Z" fill="#840511" stroke="#840511" stroke-width="1.51"/><path d="M2117,1124L1999,1222L2171,1284Z" fill="#840512" stroke="#840512" stroke-width="1.51"/><path d="M2145,854L2117,1124L2171,1284Z" fill="#8f0813" stroke="#8f0813" stroke-width="1.51"/><path d="M2152,689L2145,854L2171,1284Z" fill="#9b0b16" stroke="#9b0b16" stroke-width="1.51"/><path d="M2167,-138L2154,367L2171,1284Z" fill="#b23d2e" stroke="#b23d2e" stroke-width="1.51"/><path d="M2154,367L2152,689L2171,1284Z" fill="#a81b1b" stroke="#a81b1b" stroke-width="1.51"/><path d="M2085,272L1931,341L2154,367Z" fill="#bf5440" stroke="#bf5440" stroke-width="1.51"/><path d="M1931,341L1985,501L2154,367Z" fill="#c24d39" stroke="#c24d39" stroke-width="1.51"/><path d="M1925,822L2093,1005L2145,854Z" fill="#aa1318" stroke="#aa1318" stroke-width="1.51"/><path d="M1955,734L1925,822L2145,854Z" fill="#b61d1c" stroke="#b61d1c" stroke-width="1.51"/><path d="M2085,572L1955,734L2152,689Z" fill="#b82d23" stroke="#b82d23" stroke-width="1.51"/><path d="M2001,-56L2115,59L2140,-7Z" fill="#c17364" stroke="#c17364" stroke-width="1.51"/><path d="M1925,822L1924,1023L2093,1005Z" fill="#ad1018" stroke="#ad1018" stroke-width="1.51"/><path d="M2093,1005L1934,1069L2117,1124Z" fill="#9b0b14" stroke="#9b0b14" stroke-width="1.51"/><path d="M1934,1069L1999,1222L2117,1124Z" fill="#970b14" stroke="#970b14" stroke-width="1.51"/><path d="M2001,-56L1948,132L2115,59Z" fill="#c8725f" stroke="#c8725f" stroke-width="1.51"/><path d="M1972,232L1931,341L2085,272Z" fill="#c65b46" stroke="#c65b46" stroke-width="1.51"/><path d="M1985,501L1955,734L2085,572Z" fill="#c03628" stroke="#c03628" stroke-width="1.51"/><path d="M1924,1023L1934,1069L2093,1005Z" fill="#a40f16" stroke="#a40f16" stroke-width="1.51"/><path d="M350,1284L214,1294L682,1308Z" fill="#b9604e" stroke="#b9604e" stroke-width="1.51"/><path d="M1843,636L1955,734L1985,501Z" fill="#c83628" stroke="#c83628" stroke-width="1.51"/><path d="M1866,494L1843,636L1985,501Z" fill="#ce412e" stroke="#ce412e" stroke-width="1.51"/><path d="M1931,341L1866,494L1985,501Z" fill="#cc4c37" stroke="#cc4c37" stroke-width="1.51"/><path d="M1934,1069L1858,1129L1999,1222Z" fill="#9f0e15" stroke="#9f0e15" stroke-width="1.51"/><path d="M1873,78L1948,132L2001,-56Z" fill="#d07460" stroke="#d07460" stroke-width="1.51"/><path d="M1871,-155L2001,-56L2012,-135Z" fill="#d18170" stroke="#d18170" stroke-width="1.51"/><path d="M1811,960L1924,1023L1925,822Z" fill="#b81419" stroke="#b81419" stroke-width="1.51"/><path d="M1822,-51L1873,78L2001,-56Z" fill="#d77c68" stroke="#d77c68" stroke-width="1.51"/><path d="M1871,-155L1822,-51L2001,-56Z" fill="#d8826f" stroke="#d8826f" stroke-width="1.51"/><path d="M1858,1129L1828,1308L1999,1222Z" fill="#970a14" stroke="#970a14" stroke-width="1.51"/><path d="M1816,854L1811,960L1925,822Z" fill="#bf1a1b" stroke="#bf1a1b" stroke-width="1.51"/><path d="M1838,384L1866,494L1931,341Z" fill="#d1513b" stroke="#d1513b" stroke-width="1.51"/><path d="M1948,132L1778,269L1972,232Z" fill="#d2664f" stroke="#d2664f" stroke-width="1.51"/><path d="M1778,269L1931,341L1972,232Z" fill="#d25f48" stroke="#d25f48" stroke-width="1.51"/><path d="M1873,78L1778,269L1948,132Z" fill="#d56d56" stroke="#d56d56" stroke-width="1.51"/><path d="M1843,636L1925,822L1955,734Z" fill="#c72821" stroke="#c72821" stroke-width="1.51"/><path d="M1843,636L1816,854L1925,822Z" fill="#c82420" stroke="#c82420" stroke-width="1.51"/><path d="M1778,269L1838,384L1931,341Z" fill="#d45a43" stroke="#d45a43" stroke-width="1.51"/><path d="M1924,1023L1858,1129L1934,1069Z" fill="#a91016" stroke="#a91016" stroke-width="1.51"/><path d="M1811,960L1858,1129L1924,1023Z" fill="#af1217" stroke="#af1217" stroke-width="1.51"/><path d="M1733,104L1778,269L1873,78Z" fill="#da6f58" stroke="#da6f58" stroke-width="1.51"/><path d="M1633,778L1816,854L1843,636Z" fill="#d02621" stroke="#d02621" stroke-width="1.51"/><path d="M1653,637L1633,778L1843,636Z" fill="#d63226" stroke="#d63226" stroke-width="1.51"/><path d="M1722,1145L1828,1308L1858,1129Z" fill="#a10e15" stroke="#a10e15" stroke-width="1.51"/><path d="M1811,960L1722,1145L1858,1129Z" fill="#b01217" stroke="#b01217" stroke-width="1.51"/><path d="M1681,550L1843,636L1866,494Z" fill="#d5412e" stroke="#d5412e" stroke-width="1.51"/><path d="M1822,-51L1733,104L1873,78Z" fill="#dc7964" stroke="#dc7964" stroke-width="1.51"/><path d="M1734,-222L1822,-51L1871,-155Z" fill="#e08775" stroke="#e08775" stroke-width="1.51"/><path d="M1083,1270L986,1305L1512,1309Z" fill="#b12720" stroke="#b12720" stroke-width="1.51"/><path d="M1838,384L1661,403L1866,494Z" fill="#d7513b" stroke="#d7513b" stroke-width="1.51"/><path d="M1661,403L1681,550L1866,494Z" fill="#da4b36" stroke="#da4b36" stroke-width="1.51"/><path d="M1379,-212L1576,-162L1734,-222Z" fill="#f1907d" stroke="#f1907d" stroke-width="1.51"/><path d="M1722,1145L1700,1310L1828,1308Z" fill="#9a0c15" stroke="#9a0c15" stroke-width="1.51"/><path d="M1734,-222L1652,-62L1822,-51Z" fill="#e48774" stroke="#e48774" stroke-width="1.51"/><path d="M1681,550L1653,637L1843,636Z" fill="#d73c2c" stroke="#d73c2c" stroke-width="1.51"/><path d="M1778,269L1690,284L1838,384Z" fill="#d95e47" stroke="#d95e47" stroke-width="1.51"/><path d="M1690,284L1661,403L1838,384Z" fill="#db5a42" stroke="#db5a42" stroke-width="1.51"/><path d="M1678,925L1722,1145L1811,960Z" fill="#ba1419" stroke="#ba1419" stroke-width="1.51"/><path d="M1678,925L1811,960L1816,854Z" fill="#c1181b" stroke="#c1181b" stroke-width="1.51"/><path d="M1652,-62L1733,104L1822,-51Z" fill="#e27f6a" stroke="#e27f6a" stroke-width="1.51"/><path d="M1633,778L1678,925L1816,854Z" fill="#ca1f1e" stroke="#ca1f1e" stroke-width="1.51"/><path d="M1733,104L1690,284L1778,269Z" fill="#dd6951" stroke="#dd6951" stroke-width="1.51"/><path d="M1226,1242L1083,1270L1512,1309Z" fill="#b2201e" stroke="#b2201e" stroke-width="1.51"/><path d="M957,-224L1102,-184L1379,-212Z" fill="#ffa58d" stroke="#ffa58d" stroke-width="1.51"/><path d="M1678,925L1520,992L1722,1145Z" fill="#bf151b" stroke="#bf151b" stroke-width="1.51"/><path d="M1520,992L1506,1171L1722,1145Z" fill="#bb1419" stroke="#bb1419" stroke-width="1.51"/><path d="M1506,1171L1700,1310L1722,1145Z" fill="#a80f17" stroke="#a80f17" stroke-width="1.51"/><path d="M1524,71L1690,284L1733,104Z" fill="#e4725a" stroke="#e4725a" stroke-width="1.51"/><path d="M1652,-62L1524,71L1733,104Z" fill="#e77e67" stroke="#e77e67" stroke-width="1.51"/><path d="M1576,-162L1652,-62L1734,-222Z" fill="#ea8b78" stroke="#ea8b78" stroke-width="1.51"/><path d="M1524,71L1506,293L1690,284Z" fill="#e86d54" stroke="#e86d54" stroke-width="1.51"/><path d="M1506,1171L1512,1309L1700,1310Z" fill="#a30e17" stroke="#a30e17" stroke-width="1.51"/><path d="M1633,778L1570,881L1678,925Z" fill="#cf1f1f" stroke="#cf1f1f" stroke-width="1.51"/><path d="M1661,403L1533,539L1681,550Z" fill="#e14c36" stroke="#e14c36" stroke-width="1.51"/><path d="M1521,357L1661,403L1690,284Z" fill="#e25d45" stroke="#e25d45" stroke-width="1.51"/><path d="M1531,-47L1524,71L1652,-62Z" fill="#ed856e" stroke="#ed856e" stroke-width="1.51"/><path d="M1506,293L1521,357L1690,284Z" fill="#e6624a" stroke="#e6624a" stroke-width="1.51"/><path d="M1570,881L1520,992L1678,925Z" fill="#ca191d" stroke="#ca191d" stroke-width="1.51"/><path d="M1533,539L1653,637L1681,550Z" fill="#df4230" stroke="#df4230" stroke-width="1.51"/><path d="M1410,1256L1226,1242L1512,1309Z" fill="#ae1a1b" stroke="#ae1a1b" stroke-width="1.51"/><path d="M1493,697L1633,778L1653,637Z" fill="#dd3127" stroke="#dd3127" stroke-width="1.51"/><path d="M1521,357L1533,539L1661,403Z" fill="#e5543d" stroke="#e5543d" stroke-width="1.51"/><path d="M1576,-162L1531,-47L1652,-62Z" fill="#ee8a75" stroke="#ee8a75" stroke-width="1.51"/><path d="M1533,539L1493,697L1653,637Z" fill="#e23d2d" stroke="#e23d2d" stroke-width="1.51"/><path d="M1493,697L1570,881L1633,778Z" fill="#d92823" stroke="#d92823" stroke-width="1.51"/><path d="M1408,1099L1506,1171L1520,992Z" fill="#c21b1c" stroke="#c21b1c" stroke-width="1.51"/><path d="M1448,851L1437,969L1520,992Z" fill="#d11f1f" stroke="#d11f1f" stroke-width="1.51"/><path d="M1415,77L1506,293L1524,71Z" fill="#ee785f" stroke="#ee785f" stroke-width="1.51"/><path d="M1521,357L1388,409L1533,539Z" fill="#ea5840" stroke="#ea5840" stroke-width="1.51"/><path d="M1448,851L1520,992L1570,881Z" fill="#d1201f" stroke="#d1201f" stroke-width="1.51"/><path d="M1493,697L1448,851L1570,881Z" fill="#da2923" stroke="#da2923" stroke-width="1.51"/><path d="M1378,-79L1531,-47L1576,-162Z" fill="#f38e78" stroke="#f38e78" stroke-width="1.51"/><path d="M1379,-212L1378,-79L1576,-162Z" fill="#f7937d" stroke="#f7937d" stroke-width="1.51"/><path d="M1415,77L1354,283L1506,293Z" fill="#f07358" stroke="#f07358" stroke-width="1.51"/><path d="M1506,1171L1410,1256L1512,1309Z" fill="#ac1519" stroke="#ac1519" stroke-width="1.51"/><path d="M1437,969L1408,1099L1520,992Z" fill="#ca1e1e" stroke="#ca1e1e" stroke-width="1.51"/><path d="M1415,77L1524,71L1531,-47Z" fill="#f1836b" stroke="#f1836b" stroke-width="1.51"/><path d="M1378,-79L1415,77L1531,-47Z" fill="#f58a72" stroke="#f58a72" stroke-width="1.51"/><path d="M1342,583L1493,697L1533,539Z" fill="#e84431" stroke="#e84431" stroke-width="1.51"/><path d="M1388,409L1342,583L1533,539Z" fill="#ec513a" stroke="#ec513a" stroke-width="1.51"/><path d="M1342,583L1343,657L1493,697Z" fill="#eb4230" stroke="#eb4230" stroke-width="1.51"/><path d="M1506,293L1388,409L1521,357Z" fill="#eb6248" stroke="#eb6248" stroke-width="1.51"/><path d="M1297,205L1354,283L1415,77Z" fill="#f5795d" stroke="#f5795d" stroke-width="1.51"/><path d="M1354,283L1388,409L1506,293Z" fill="#ef674c" stroke="#ef674c" stroke-width="1.51"/><path d="M1303,790L1448,851L1493,697Z" fill="#e33127" stroke="#e33127" stroke-width="1.51"/><path d="M1408,1099L1410,1256L1506,1171Z" fill="#b91b1b" stroke="#b91b1b" stroke-width="1.51"/><path d="M1343,657L1303,790L1493,697Z" fill="#e9392b" stroke="#e9392b" stroke-width="1.51"/><path d="M1378,-79L1299,-14L1415,77Z" fill="#f98c73" stroke="#f98c73" stroke-width="1.51"/><path d="M1242,950L1437,969L1448,851Z" fill="#d82622" stroke="#d82622" stroke-width="1.51"/><path d="M1303,790L1242,950L1448,851Z" fill="#e02e26" stroke="#e02e26" stroke-width="1.51"/><path d="M1408,1099L1211,1171L1410,1256Z" fill="#bf211e" stroke="#bf211e" stroke-width="1.51"/><path d="M1242,950L1408,1099L1437,969Z" fill="#d12520" stroke="#d12520" stroke-width="1.51"/><path d="M1102,-184L1228,-144L1379,-212Z" fill="#ff9e86" stroke="#ff9e86" stroke-width="1.51"/><path d="M1291,573L1342,583L1388,409Z" fill="#f1543b" stroke="#f1543b" stroke-width="1.51"/><path d="M1211,1171L1226,1242L1410,1256Z" fill="#ba221e" stroke="#ba221e" stroke-width="1.51"/><path d="M1299,-14L1245,127L1415,77Z" fill="#f9876c" stroke="#f9876c" stroke-width="1.51"/><path d="M1245,127L1297,205L1415,77Z" fill="#f78064" stroke="#f78064" stroke-width="1.51"/><path d="M1242,950L1211,1171L1408,1099Z" fill="#cf2721" stroke="#cf2721" stroke-width="1.51"/><path d="M1228,-144L1378,-79L1379,-212Z" fill="#fe9780" stroke="#fe9780" stroke-width="1.51"/><path d="M1354,283L1197,367L1388,409Z" fill="#f5684c" stroke="#f5684c" stroke-width="1.51"/><path d="M1197,367L1291,573L1388,409Z" fill="#f55e43" stroke="#f55e43" stroke-width="1.51"/><path d="M1228,-144L1299,-14L1378,-79Z" fill="#fe957c" stroke="#fe957c" stroke-width="1.51"/><path d="M1215,702L1303,790L1343,657Z" fill="#ef3d2d" stroke="#ef3d2d" stroke-width="1.51"/><path d="M1342,583L1291,573L1343,657Z" fill="#f04a34" stroke="#f04a34" stroke-width="1.51"/><path d="M1297,205L1197,367L1354,283Z" fill="#f77154" stroke="#f77154" stroke-width="1.51"/><path d="M1291,573L1215,702L1343,657Z" fill="#f14732" stroke="#f14732" stroke-width="1.51"/><path d="M1132,951L1211,1171L1242,950Z" fill="#d63126" stroke="#d63126" stroke-width="1.51"/><path d="M1148,587L1215,702L1291,573Z" fill="#f44f37" stroke="#f44f37" stroke-width="1.51"/><path d="M1197,367L1148,587L1291,573Z" fill="#f65c40" stroke="#f65c40" stroke-width="1.51"/><path d="M1118,268L1197,367L1297,205Z" fill="#fa7658" stroke="#fa7658" stroke-width="1.51"/><path d="M1091,882L1242,950L1303,790Z" fill="#e43629" stroke="#e43629" stroke-width="1.51"/><path d="M1215,702L1091,882L1303,790Z" fill="#ec3d2d" stroke="#ec3d2d" stroke-width="1.51"/><path d="M1057,-53L1059,92L1245,127Z" fill="#ff9376" stroke="#ff9376" stroke-width="1.51"/><path d="M1057,-53L1245,127L1299,-14Z" fill="#ff9177" stroke="#ff9177" stroke-width="1.51"/><path d="M1228,-144L1057,-53L1299,-14Z" fill="#ff9a81" stroke="#ff9a81" stroke-width="1.51"/><path d="M1245,127L1118,268L1297,205Z" fill="#fa7e61" stroke="#fa7e61" stroke-width="1.51"/><path d="M1132,951L1089,1152L1211,1171Z" fill="#d13427" stroke="#d13427" stroke-width="1.51"/><path d="M1121,706L1091,882L1215,702Z" fill="#f04431" stroke="#f04431" stroke-width="1.51"/><path d="M1091,882L1132,951L1242,950Z" fill="#e0372a" stroke="#e0372a" stroke-width="1.51"/><path d="M1059,92L1118,268L1245,127Z" fill="#fb8769" stroke="#fb8769" stroke-width="1.51"/><path d="M1000,395L1148,587L1197,367Z" fill="#f9694b" stroke="#f9694b" stroke-width="1.51"/><path d="M1051,345L1000,395L1197,367Z" fill="#fa7455" stroke="#fa7455" stroke-width="1.51"/><path d="M1148,587L1121,706L1215,702Z" fill="#f44e36" stroke="#f44e36" stroke-width="1.51"/><path d="M1211,1171L1083,1270L1226,1242Z" fill="#bc2c23" stroke="#bc2c23" stroke-width="1.51"/><path d="M1102,-184L1057,-53L1228,-144Z" fill="#ffa188" stroke="#ffa188" stroke-width="1.51"/><path d="M1089,1152L1083,1270L1211,1171Z" fill="#c23126" stroke="#c23126" stroke-width="1.51"/><path d="M1012,1096L1089,1152L1132,951Z" fill="#d53a2a" stroke="#d53a2a" stroke-width="1.51"/><path d="M1000,395L1001,580L1148,587Z" fill="#fa6647" stroke="#fa6647" stroke-width="1.51"/><path d="M1118,268L1051,345L1197,367Z" fill="#fa7657" stroke="#fa7657" stroke-width="1.51"/><path d="M1059,92L1000,105L1118,268Z" fill="#fd8d6e" stroke="#fd8d6e" stroke-width="1.51"/><path d="M1000,105L971,260L1118,268Z" fill="#fd8969" stroke="#fd8969" stroke-width="1.51"/><path d="M990,790L1091,882L1121,706Z" fill="#ee4933" stroke="#ee4933" stroke-width="1.51"/><path d="M994,974L1012,1096L1132,951Z" fill="#db3e2e" stroke="#db3e2e" stroke-width="1.51"/><path d="M1007,662L1121,706L1148,587Z" fill="#f6553b" stroke="#f6553b" stroke-width="1.51"/><path d="M1001,580L1007,662L1148,587Z" fill="#f85c40" stroke="#f85c40" stroke-width="1.51"/><path d="M1091,882L994,974L1132,951Z" fill="#e23f2e" stroke="#e23f2e" stroke-width="1.51"/><path d="M1057,-53L985,1L1059,92Z" fill="#ff9c80" stroke="#ff9c80" stroke-width="1.51"/><path d="M1007,662L990,790L1121,706Z" fill="#f45138" stroke="#f45138" stroke-width="1.51"/><path d="M971,260L1051,345L1118,268Z" fill="#fc7f5f" stroke="#fc7f5f" stroke-width="1.51"/><path d="M986,1305L1083,1270L1089,1152Z" fill="#bd3528" stroke="#bd3528" stroke-width="1.51"/><path d="M957,-224L1057,-53L1102,-184Z" fill="#ffa78e" stroke="#ffa78e" stroke-width="1.51"/><path d="M1012,1096L986,1305L1089,1152Z" fill="#c73a2a" stroke="#c73a2a" stroke-width="1.51"/><path d="M990,790L994,974L1091,882Z" fill="#e74632" stroke="#e74632" stroke-width="1.51"/><path d="M863,-146L985,1L1057,-53Z" fill="#ffa78c" stroke="#ffa78c" stroke-width="1.51"/><path d="M957,-224L863,-146L1057,-53Z" fill="#ffac92" stroke="#ffac92" stroke-width="1.51"/><path d="M985,1L1000,105L1059,92Z" fill="#ff987b" stroke="#ff987b" stroke-width="1.51"/><path d="M800,1213L986,1305L1012,1096Z" fill="#c5412f" stroke="#c5412f" stroke-width="1.51"/><path d="M971,260L1000,395L1051,345Z" fill="#fb7d5c" stroke="#fb7d5c" stroke-width="1.51"/><path d="M990,790L859,800L994,974Z" fill="#eb4e37" stroke="#eb4e37" stroke-width="1.51"/><path d="M859,800L808,987L994,974Z" fill="#e64e38" stroke="#e64e38" stroke-width="1.51"/><path d="M783,231L971,260L1000,105Z" fill="#fe9171" stroke="#fe9171" stroke-width="1.51"/><path d="M804,432L810,526L1000,395Z" fill="#fc7a58" stroke="#fc7a58" stroke-width="1.51"/><path d="M1000,395L810,526L1001,580Z" fill="#fc704f" stroke="#fc704f" stroke-width="1.51"/><path d="M1001,580L861,730L1007,662Z" fill="#f85e41" stroke="#f85e41" stroke-width="1.51"/><path d="M861,730L990,790L1007,662Z" fill="#f6563c" stroke="#f6563c" stroke-width="1.51"/><path d="M843,1075L800,1213L1012,1096Z" fill="#d14833" stroke="#d14833" stroke-width="1.51"/><path d="M994,974L843,1075L1012,1096Z" fill="#d94531" stroke="#d94531" stroke-width="1.51"/><path d="M863,-146L854,9L985,1Z" fill="#ffaa8f" stroke="#ffaa8f" stroke-width="1.51"/><path d="M780,72L783,231L1000,105Z" fill="#fe9b7c" stroke="#fe9b7c" stroke-width="1.51"/><path d="M985,1L854,9L1000,105Z" fill="#ff9f82" stroke="#ff9f82" stroke-width="1.51"/><path d="M971,260L804,432L1000,395Z" fill="#fc7f5e" stroke="#fc7f5e" stroke-width="1.51"/><path d="M-104,-232L204,-197L392,-231Z" fill="#ffe1d3" stroke="#ffe1d3" stroke-width="1.51"/><path d="M800,1213L682,1308L986,1305Z" fill="#ba4534" stroke="#ba4534" stroke-width="1.51"/><path d="M854,9L780,72L1000,105Z" fill="#ffa184" stroke="#ffa184" stroke-width="1.51"/><path d="M810,526L861,730L1001,580Z" fill="#fa6849" stroke="#fa6849" stroke-width="1.51"/><path d="M808,987L843,1075L994,974Z" fill="#dd4c36" stroke="#dd4c36" stroke-width="1.51"/><path d="M861,730L859,800L990,790Z" fill="#f3573d" stroke="#f3573d" stroke-width="1.51"/><path d="M783,231L804,432L971,260Z" fill="#fc8969" stroke="#fc8969" stroke-width="1.51"/><path d="M651,-220L863,-146L957,-224Z" fill="#ffb7a0" stroke="#ffb7a0" stroke-width="1.51"/><path d="M783,231L697,353L804,432Z" fill="#fc8b6b" stroke="#fc8b6b" stroke-width="1.51"/><path d="M664,840L808,987L859,800Z" fill="#ea5941" stroke="#ea5941" stroke-width="1.51"/><path d="M810,526L713,535L861,730Z" fill="#fa7050" stroke="#fa7050" stroke-width="1.51"/><path d="M713,535L633,648L861,730Z" fill="#f97051" stroke="#f97051" stroke-width="1.51"/><path d="M664,840L859,800L861,730Z" fill="#f25e43" stroke="#f25e43" stroke-width="1.51"/><path d="M666,-78L854,9L863,-146Z" fill="#ffb198" stroke="#ffb198" stroke-width="1.51"/><path d="M651,-220L666,-78L863,-146Z" fill="#ffbaa2" stroke="#ffbaa2" stroke-width="1.51"/><path d="M666,-78L780,72L854,9Z" fill="#ffad92" stroke="#ffad92" stroke-width="1.51"/><path d="M633,648L664,840L861,730Z" fill="#f7674a" stroke="#f7674a" stroke-width="1.51"/><path d="M525,1255L350,1284L682,1308Z" fill="#bb5a47" stroke="#bb5a47" stroke-width="1.51"/><path d="M780,72L717,213L783,231Z" fill="#fd9d7f" stroke="#fd9d7f" stroke-width="1.51"/><path d="M808,987L617,1072L843,1075Z" fill="#da543d" stroke="#da543d" stroke-width="1.51"/><path d="M617,1072L800,1213L843,1075Z" fill="#d3523c" stroke="#d3523c" stroke-width="1.51"/><path d="M666,-78L694,81L780,72Z" fill="#ffae93" stroke="#ffae93" stroke-width="1.51"/><path d="M694,81L717,213L780,72Z" fill="#fda487" stroke="#fda487" stroke-width="1.51"/><path d="M664,840L617,1005L808,987Z" fill="#e45b43" stroke="#e45b43" stroke-width="1.51"/><path d="M617,1005L617,1072L808,987Z" fill="#dd5a43" stroke="#dd5a43" stroke-width="1.51"/><path d="M804,432L713,535L810,526Z" fill="#fc7b5a" stroke="#fc7b5a" stroke-width="1.51"/><path d="M717,213L697,353L783,231Z" fill="#fd9575" stroke="#fd9575" stroke-width="1.51"/><path d="M697,353L713,535L804,432Z" fill="#fc8362" stroke="#fc8362" stroke-width="1.51"/><path d="M617,1072L682,1308L800,1213Z" fill="#c7523d" stroke="#c7523d" stroke-width="1.51"/><path d="M617,1072L521,1171L682,1308Z" fill="#ca5943" stroke="#ca5943" stroke-width="1.51"/><path d="M521,1171L525,1255L682,1308Z" fill="#c05744" stroke="#c05744" stroke-width="1.51"/><path d="M666,-78L510,-21L694,81Z" fill="#ffb69d" stroke="#ffb69d" stroke-width="1.51"/><path d="M524,354L497,514L697,353Z" fill="#fd9171" stroke="#fd9171" stroke-width="1.51"/><path d="M697,353L497,514L713,535Z" fill="#fc8766" stroke="#fc8766" stroke-width="1.51"/><path d="M545,234L697,353L717,213Z" fill="#fd9a7a" stroke="#fd9a7a" stroke-width="1.51"/><path d="M694,81L545,234L717,213Z" fill="#fda385" stroke="#fda385" stroke-width="1.51"/><path d="M633,648L528,686L664,840Z" fill="#f87053" stroke="#f87053" stroke-width="1.51"/><path d="M497,514L633,648L713,535Z" fill="#fc7f5f" stroke="#fc7f5f" stroke-width="1.51"/><path d="M510,67L545,234L694,81Z" fill="#fdad90" stroke="#fdad90" stroke-width="1.51"/><path d="M510,-21L510,67L694,81Z" fill="#ffb59b" stroke="#ffb59b" stroke-width="1.51"/><path d="M545,234L524,354L697,353Z" fill="#fd9a79" stroke="#fd9a79" stroke-width="1.51"/><path d="M528,686L508,827L664,840Z" fill="#f46f53" stroke="#f46f53" stroke-width="1.51"/><path d="M508,827L617,1005L664,840Z" fill="#ea664c" stroke="#ea664c" stroke-width="1.51"/><path d="M651,-220L534,-221L666,-78Z" fill="#ffc2ac" stroke="#ffc2ac" stroke-width="1.51"/><path d="M534,-221L510,-21L666,-78Z" fill="#ffc1ab" stroke="#ffc1ab" stroke-width="1.51"/><path d="M508,827L547,1025L617,1005Z" fill="#e5654c" stroke="#e5654c" stroke-width="1.51"/><path d="M497,514L528,686L633,648Z" fill="#fc7e5f" stroke="#fc7e5f" stroke-width="1.51"/><path d="M508,827L431,875L547,1025Z" fill="#ea6c53" stroke="#ea6c53" stroke-width="1.51"/><path d="M617,1005L547,1025L617,1072Z" fill="#dc6048" stroke="#dc6048" stroke-width="1.51"/><path d="M547,1025L521,1171L617,1072Z" fill="#d76049" stroke="#d76049" stroke-width="1.51"/><path d="M355,89L375,259L510,67Z" fill="#fdb79c" stroke="#fdb79c" stroke-width="1.51"/><path d="M408,436L497,514L524,354Z" fill="#fd9576" stroke="#fd9576" stroke-width="1.51"/><path d="M497,514L360,649L528,686Z" fill="#fc8566" stroke="#fc8566" stroke-width="1.51"/><path d="M392,-231L510,-21L534,-221Z" fill="#ffcab6" stroke="#ffcab6" stroke-width="1.51"/><path d="M375,259L524,354L545,234Z" fill="#fda486" stroke="#fda486" stroke-width="1.51"/><path d="M510,67L375,259L545,234Z" fill="#fdae91" stroke="#fdae91" stroke-width="1.51"/><path d="M431,875L344,942L547,1025Z" fill="#e76e55" stroke="#e76e55" stroke-width="1.51"/><path d="M344,942L425,1141L547,1025Z" fill="#de6b53" stroke="#de6b53" stroke-width="1.51"/><path d="M425,1141L521,1171L547,1025Z" fill="#d6644d" stroke="#d6644d" stroke-width="1.51"/><path d="M392,-231L339,1L510,-21Z" fill="#ffcbb6" stroke="#ffcbb6" stroke-width="1.51"/><path d="M521,1171L425,1141L525,1255Z" fill="#cb614b" stroke="#cb614b" stroke-width="1.51"/><path d="M360,649L508,827L528,686Z" fill="#fa7b5d" stroke="#fa7b5d" stroke-width="1.51"/><path d="M360,649L431,875L508,827Z" fill="#f6785d" stroke="#f6785d" stroke-width="1.51"/><path d="M425,1141L350,1284L525,1255Z" fill="#c5634e" stroke="#c5634e" stroke-width="1.51"/><path d="M375,259L408,436L524,354Z" fill="#fda081" stroke="#fda081" stroke-width="1.51"/><path d="M510,-21L339,1L510,67Z" fill="#fec0a8" stroke="#fec0a8" stroke-width="1.51"/><path d="M359,487L360,649L497,514Z" fill="#fe8f6f" stroke="#fe8f6f" stroke-width="1.51"/><path d="M339,1L355,89L510,67Z" fill="#fdbfa7" stroke="#fdbfa7" stroke-width="1.51"/><path d="M408,436L359,487L497,514Z" fill="#fe9575" stroke="#fe9575" stroke-width="1.51"/><path d="M216,-57L339,1L392,-231Z" fill="#fed1be" stroke="#fed1be" stroke-width="1.51"/><path d="M204,-197L216,-57L392,-231Z" fill="#ffd7c7" stroke="#ffd7c7" stroke-width="1.51"/><path d="M375,259L182,370L408,436Z" fill="#fda789" stroke="#fda789" stroke-width="1.51"/><path d="M344,942L227,1023L425,1141Z" fill="#df725b" stroke="#df725b" stroke-width="1.51"/><path d="M227,1023L229,1120L425,1141Z" fill="#da735c" stroke="#da735c" stroke-width="1.51"/><path d="M229,1120L350,1284L425,1141Z" fill="#cd6c57" stroke="#cd6c57" stroke-width="1.51"/><path d="M360,649L210,805L431,875Z" fill="#f78064" stroke="#f78064" stroke-width="1.51"/><path d="M210,805L344,942L431,875Z" fill="#ef7a60" stroke="#ef7a60" stroke-width="1.51"/><path d="M355,89L274,110L375,259Z" fill="#fcbba0" stroke="#fcbba0" stroke-width="1.51"/><path d="M-104,-232L87,-175L204,-197Z" fill="#ffe6da" stroke="#ffe6da" stroke-width="1.51"/><path d="M359,487L261,545L360,649Z" fill="#fe9375" stroke="#fe9375" stroke-width="1.51"/><path d="M224,261L182,370L375,259Z" fill="#feb095" stroke="#feb095" stroke-width="1.51"/><path d="M182,370L359,487L408,436Z" fill="#fea082" stroke="#fea082" stroke-width="1.51"/><path d="M274,110L224,261L375,259Z" fill="#fdb79d" stroke="#fdb79d" stroke-width="1.51"/><path d="M229,1120L214,1294L350,1284Z" fill="#c56d5a" stroke="#c56d5a" stroke-width="1.51"/><path d="M190,653L210,805L360,649Z" fill="#fc8b6f" stroke="#fc8b6f" stroke-width="1.51"/><path d="M339,1L274,110L355,89Z" fill="#fdc3ab" stroke="#fdc3ab" stroke-width="1.51"/><path d="M182,370L261,545L359,487Z" fill="#ffa082" stroke="#ffa082" stroke-width="1.51"/><path d="M261,545L190,653L360,649Z" fill="#fe9275" stroke="#fe9275" stroke-width="1.51"/><path d="M210,805L227,1023L344,942Z" fill="#eb7b63" stroke="#eb7b63" stroke-width="1.51"/><path d="M216,-57L274,110L339,1Z" fill="#fecab5" stroke="#fecab5" stroke-width="1.51"/><path d="M52,1214L-94,1231L214,1294Z" fill="#c67868" stroke="#c67868" stroke-width="1.51"/><path d="M210,805L93,962L227,1023Z" fill="#ed8069" stroke="#ed8069" stroke-width="1.51"/><path d="M182,370L128,431L261,545Z" fill="#ffa68a" stroke="#ffa68a" stroke-width="1.51"/><path d="M106,113L224,261L274,110Z" fill="#fdc2a9" stroke="#fdc2a9" stroke-width="1.51"/><path d="M216,-57L106,113L274,110Z" fill="#fecbb7" stroke="#fecbb7" stroke-width="1.51"/><path d="M75,1147L214,1294L229,1120Z" fill="#cf7662" stroke="#cf7662" stroke-width="1.51"/><path d="M85,549L190,653L261,545Z" fill="#ff9b7e" stroke="#ff9b7e" stroke-width="1.51"/><path d="M128,431L85,549L261,545Z" fill="#ffa386" stroke="#ffa386" stroke-width="1.51"/><path d="M37,825L93,962L210,805Z" fill="#f38870" stroke="#f38870" stroke-width="1.51"/><path d="M190,653L79,683L210,805Z" fill="#fe9075" stroke="#fe9075" stroke-width="1.51"/><path d="M75,1147L52,1214L214,1294Z" fill="#ca7765" stroke="#ca7765" stroke-width="1.51"/><path d="M77,-66L106,113L216,-57Z" fill="#fed5c3" stroke="#fed5c3" stroke-width="1.51"/><path d="M204,-197L87,-175L216,-57Z" fill="#ffdcce" stroke="#ffdcce" stroke-width="1.51"/><path d="M87,-175L77,-66L216,-57Z" fill="#fedccd" stroke="#fedccd" stroke-width="1.51"/><path d="M97,297L182,370L224,261Z" fill="#feb59b" stroke="#feb59b" stroke-width="1.51"/><path d="M106,113L97,297L224,261Z" fill="#febfa7" stroke="#febfa7" stroke-width="1.51"/><path d="M93,962L75,1147L227,1023Z" fill="#e27e69" stroke="#e27e69" stroke-width="1.51"/><path d="M227,1023L75,1147L229,1120Z" fill="#dc7a64" stroke="#dc7a64" stroke-width="1.51"/><path d="M79,683L37,825L210,805Z" fill="#fb8e75" stroke="#fb8e75" stroke-width="1.51"/><path d="M85,549L79,683L190,653Z" fill="#ff9a7f" stroke="#ff9a7f" stroke-width="1.51"/><path d="M97,297L128,431L182,370Z" fill="#ffb197" stroke="#ffb197" stroke-width="1.51"/><path d="M-55,953L75,1147L93,962Z" fill="#e58571" stroke="#e58571" stroke-width="1.51"/><path d="M77,-66L-33,-15L106,113Z" fill="#fed8c8" stroke="#fed8c8" stroke-width="1.51"/><path d="M-33,-15L-24,105L106,113Z" fill="#fed5c3" stroke="#fed5c3" stroke-width="1.51"/><path d="M-19,218L97,297L106,113Z" fill="#ffc5af" stroke="#ffc5af" stroke-width="1.51"/><path d="M97,297L-4,404L128,431Z" fill="#ffb49b" stroke="#ffb49b" stroke-width="1.51"/><path d="M-4,404L85,549L128,431Z" fill="#ffac92" stroke="#ffac92" stroke-width="1.51"/><path d="M-55,953L-43,1157L75,1147Z" fill="#df8471" stroke="#df8471" stroke-width="1.51"/><path d="M37,825L-55,953L93,962Z" fill="#f08a75" stroke="#f08a75" stroke-width="1.51"/><path d="M-24,105L-19,218L106,113Z" fill="#fecdb9" stroke="#fecdb9" stroke-width="1.51"/><path d="M-59,736L37,825L79,683Z" fill="#ff957c" stroke="#ff957c" stroke-width="1.51"/><path d="M-99,554L79,683L85,549Z" fill="#ffa388" stroke="#ffa388" stroke-width="1.51"/><path d="M-19,218L-4,404L97,297Z" fill="#ffbda6" stroke="#ffbda6" stroke-width="1.51"/><path d="M-4,404L-99,554L85,549Z" fill="#ffac92" stroke="#ffac92" stroke-width="1.51"/><path d="M-33,-15L77,-66L87,-175Z" fill="#fee1d3" stroke="#fee1d3" stroke-width="1.51"/><path d="M-104,-232L-33,-15L87,-175Z" fill="#ffe6da" stroke="#ffe6da" stroke-width="1.51"/><path d="M-99,554L-59,736L79,683Z" fill="#ff9e85" stroke="#ff9e85" stroke-width="1.51"/><path d="M-43,1157L52,1214L75,1147Z" fill="#d37f6d" stroke="#d37f6d" stroke-width="1.51"/><path d="M-101,848L-55,953L37,825Z" fill="#f48f79" stroke="#f48f79" stroke-width="1.51"/><path d="M-43,1157L-94,1231L52,1214Z" fill="#cf7f6e" stroke="#cf7f6e" stroke-width="1.51"/><path d="M-19,218L-180,288L-4,404Z" fill="#ffc1ab" stroke="#ffc1ab" stroke-width="1.51"/><path d="M-59,736L-101,848L37,825Z" fill="#fa937c" stroke="#fa937c" stroke-width="1.51"/><path d="M-55,953L-199,1110L-43,1157Z" fill="#e28875" stroke="#e28875" stroke-width="1.51"/><path d="M-104,-232L-207,-136L-33,-15Z" fill="#ffe8de" stroke="#ffe8de" stroke-width="1.51"/><path d="M-24,105L-168,128L-19,218Z" fill="#ffd0bd" stroke="#ffd0bd" stroke-width="1.51"/><path d="M-201,496L-99,554L-4,404Z" fill="#ffb198" stroke="#ffb198" stroke-width="1.51"/><path d="M-180,288L-201,496L-4,404Z" fill="#ffbaa3" stroke="#ffbaa3" stroke-width="1.51"/><path d="M-250,423L-201,496L-180,288Z" fill="#ffbca6" stroke="#ffbca6" stroke-width="1.51"/><path d="M-33,-15L-168,128L-24,105Z" fill="#ffd8c7" stroke="#ffd8c7" stroke-width="1.51"/><path d="M-168,128L-180,288L-19,218Z" fill="#ffccb8" stroke="#ffccb8" stroke-width="1.51"/><path d="M-99,554L-220,729L-59,736Z" fill="#ffa189" stroke="#ffa189" stroke-width="1.51"/><path d="M-242,-69L-168,128L-33,-15Z" fill="#ffdfd2" stroke="#ffdfd2" stroke-width="1.51"/><path d="M-207,-136L-242,-69L-33,-15Z" fill="#ffe7dc" stroke="#ffe7dc" stroke-width="1.51"/><path d="M-161,776L-101,848L-59,736Z" fill="#fd9780" stroke="#fd9780" stroke-width="1.51"/><path d="M-253,957L-199,1110L-55,953Z" fill="#e98d7a" stroke="#e98d7a" stroke-width="1.51"/><path d="M-199,1110L-94,1231L-43,1157Z" fill="#d68473" stroke="#d68473" stroke-width="1.51"/><path d="M-220,729L-161,776L-59,736Z" fill="#ff9b84" stroke="#ff9b84" stroke-width="1.51"/><path d="M-101,848L-253,957L-55,953Z" fill="#f28f7b" stroke="#f28f7b" stroke-width="1.51"/><path d="M-199,1110L-197,1217L-94,1231Z" fill="#d38575" stroke="#d38575" stroke-width="1.51"/><path d="M-201,496L-220,729L-99,554Z" fill="#ffa991" stroke="#ffa991" stroke-width="1.51"/><path d="M-161,776L-253,957L-101,848Z" fill="#f79480" stroke="#f79480" stroke-width="1.51"/><path d="M-220,729L-253,957L-161,776Z" fill="#fb9883" stroke="#fb9883" stroke-width="1.51"/><path d="M-250,423L-180,288L-168,128Z" fill="#ffc8b3" stroke="#ffc8b3" stroke-width="1.51"/><path d="M-242,-69L-250,423L-168,128Z" fill="#ffd4c3" stroke="#ffd4c3" stroke-width="1.51"/><path d="M-250,423L-220,729L-201,496Z" fill="#ffaf97" stroke="#ffaf97" stroke-width="1.51"/><path d="M-199,1110L-253,957L-197,1217Z" fill="#e18b7a" stroke="#e18b7a" stroke-width="1.51"/><path d="M-250,423L-253,957L-220,729Z" fill="#ffa28b" stroke="#ffa28b" stroke-width="1.51"/></svg>
