<svg xmlns="http://www.w3.org/2000/svg" width="1524" height="610"><path d="M213,794L-203,874L610,791Z" fill="#c35d48" stroke="#c35d48" stroke-width="1.51"/><path d="M610,791L-203,874L702,793Z" fill="#c24c39" stroke="#c24c39" stroke-width="1.51"/><path d="M249,-270L800,-175L1072,-198Z" fill="#ff9c84" stroke="#ff9c84" stroke-width="1.51"/><path d="M883,783L702,793L1110,822Z" fill="#b01519" stroke="#b01519" stroke-width="1.51"/><path d="M702,793L-203,874L1110,822Z" fill="#be3a2b" stroke="#be3a2b" stroke-width="1.51"/><path d="M1286,523L1274,703L1291,759Z" fill="#9c0b16" stroke="#9c0b16" stroke-width="1.51"/><path d="M1097,367L1286,523L1311,315Z" fill="#be2d23" stroke="#be2d23" stroke-width="1.51"/><path d="M1286,523L1291,759L1311,315Z" fill="#aa171a" stroke="#aa171a" stroke-width="1.51"/><path d="M1145,152L1259,197L1318,15Z" fill="#c45944" stroke="#c45944" stroke-width="1.51"/><path d="M1259,197L1311,315L1318,15Z" fill="#ba4e3c" stroke="#ba4e3c" stroke-width="1.51"/><path d="M249,-270L1072,-198L1342,-194Z" fill="#f4917c" stroke="#f4917c" stroke-width="1.51"/><path d="M1133,-62L1318,15L1342,-194Z" fill="#c57261" stroke="#c57261" stroke-width="1.51"/><path d="M1072,-198L1133,-62L1342,-194Z" fill="#d47f6e" stroke="#d47f6e" stroke-width="1.51"/><path d="M1318,15L1311,315L1342,-194Z" fill="#b85f4d" stroke="#b85f4d" stroke-width="1.51"/><path d="M800,-175L940,-164L1072,-198Z" fill="#ef8b77" stroke="#ef8b77" stroke-width="1.51"/><path d="M1097,367L1119,523L1286,523Z" fill="#c5231f" stroke="#c5231f" stroke-width="1.51"/><path d="M1119,523L1274,703L1286,523Z" fill="#ae1319" stroke="#ae1319" stroke-width="1.51"/><path d="M1133,-62L1145,152L1318,15Z" fill="#cc6852" stroke="#cc6852" stroke-width="1.51"/><path d="M1259,197L1097,367L1311,315Z" fill="#c4402f" stroke="#c4402f" stroke-width="1.51"/><path d="M1119,523L1061,669L1274,703Z" fill="#b31218" stroke="#b31218" stroke-width="1.51"/><path d="M1274,703L1110,822L1291,759Z" fill="#970b14" stroke="#970b14" stroke-width="1.51"/><path d="M1145,152L1097,367L1259,197Z" fill="#ce4c37" stroke="#ce4c37" stroke-width="1.51"/><path d="M1061,669L1110,822L1274,703Z" fill="#a70f15" stroke="#a70f15" stroke-width="1.51"/><path d="M249,-270L660,-148L800,-175Z" fill="#ffa68d" stroke="#ffa68d" stroke-width="1.51"/><path d="M919,-31L968,133L1133,-62Z" fill="#e2725a" stroke="#e2725a" stroke-width="1.51"/><path d="M974,274L1097,367L1145,152Z" fill="#d84b35" stroke="#d84b35" stroke-width="1.51"/><path d="M968,133L974,274L1145,152Z" fill="#dc5740" stroke="#dc5740" stroke-width="1.51"/><path d="M1133,-62L968,133L1145,152Z" fill="#da674f" stroke="#da674f" stroke-width="1.51"/><path d="M1097,367L907,452L1119,523Z" fill="#d42a23" stroke="#d42a23" stroke-width="1.51"/><path d="M1072,-198L940,-164L1133,-62Z" fill="#e38470" stroke="#e38470" stroke-width="1.51"/><path d="M940,-164L919,-31L1133,-62Z" fill="#e67f69" stroke="#e67f69" stroke-width="1.51"/><path d="M1061,669L883,783L1110,822Z" fill="#af1217" stroke="#af1217" stroke-width="1.51"/><path d="M933,623L1061,669L1119,523Z" fill="#c1161b" stroke="#c1161b" stroke-width="1.51"/><path d="M907,452L933,623L1119,523Z" fill="#cf211f" stroke="#cf211f" stroke-width="1.51"/><path d="M974,274L907,452L1097,367Z" fill="#db3c2c" stroke="#db3c2c" stroke-width="1.51"/><path d="M933,623L883,783L1061,669Z" fill="#bd151a" stroke="#bd151a" stroke-width="1.51"/><path d="M919,-31L829,-43L968,133Z" fill="#eb755c" stroke="#eb755c" stroke-width="1.51"/><path d="M829,-43L707,131L968,133Z" fill="#f07157" stroke="#f07157" stroke-width="1.51"/><path d="M707,131L800,312L968,133Z" fill="#ee6046" stroke="#ee6046" stroke-width="1.51"/><path d="M968,133L800,312L974,274Z" fill="#e6533c" stroke="#e6533c" stroke-width="1.51"/><path d="M800,312L907,452L974,274Z" fill="#e54331" stroke="#e54331" stroke-width="1.51"/><path d="M761,690L883,783L933,623Z" fill="#c51d1d" stroke="#c51d1d" stroke-width="1.51"/><path d="M907,452L742,507L933,623Z" fill="#da2923" stroke="#da2923" stroke-width="1.51"/><path d="M829,-43L919,-31L940,-164Z" fill="#ef836b" stroke="#ef836b" stroke-width="1.51"/><path d="M800,-175L829,-43L940,-164Z" fill="#f48c74" stroke="#f48c74" stroke-width="1.51"/><path d="M742,507L761,690L933,623Z" fill="#d52421" stroke="#d52421" stroke-width="1.51"/><path d="M800,312L742,507L907,452Z" fill="#e83a2b" stroke="#e83a2b" stroke-width="1.51"/><path d="M367,751L213,794L610,791Z" fill="#ca4c38" stroke="#ca4c38" stroke-width="1.51"/><path d="M761,690L702,793L883,783Z" fill="#c4221e" stroke="#c4221e" stroke-width="1.51"/><path d="M249,-270L387,-154L660,-148Z" fill="#ffb299" stroke="#ffb299" stroke-width="1.51"/><path d="M647,30L707,131L829,-43Z" fill="#f97d60" stroke="#f97d60" stroke-width="1.51"/><path d="M800,-175L660,-148L829,-43Z" fill="#fb9077" stroke="#fb9077" stroke-width="1.51"/><path d="M660,-148L647,30L829,-43Z" fill="#fd8b6f" stroke="#fd8b6f" stroke-width="1.51"/><path d="M606,274L742,507L800,312Z" fill="#f34c35" stroke="#f34c35" stroke-width="1.51"/><path d="M707,131L606,274L800,312Z" fill="#f76145" stroke="#f76145" stroke-width="1.51"/><path d="M606,274L551,472L742,507Z" fill="#f34d36" stroke="#f34d36" stroke-width="1.51"/><path d="M551,472L554,682L742,507Z" fill="#e63f2e" stroke="#e63f2e" stroke-width="1.51"/><path d="M610,791L702,793L761,690Z" fill="#c92b23" stroke="#c92b23" stroke-width="1.51"/><path d="M554,682L610,791L761,690Z" fill="#d03327" stroke="#d03327" stroke-width="1.51"/><path d="M742,507L554,682L761,690Z" fill="#db3026" stroke="#db3026" stroke-width="1.51"/><path d="M647,30L581,94L707,131Z" fill="#fb7e5f" stroke="#fb7e5f" stroke-width="1.51"/><path d="M581,94L606,274L707,131Z" fill="#f97254" stroke="#f97254" stroke-width="1.51"/><path d="M551,472L459,595L554,682Z" fill="#e64834" stroke="#e64834" stroke-width="1.51"/><path d="M381,-39L581,94L647,30Z" fill="#fd8f70" stroke="#fd8f70" stroke-width="1.51"/><path d="M381,-39L647,30L660,-148Z" fill="#ff987a" stroke="#ff987a" stroke-width="1.51"/><path d="M387,-154L381,-39L660,-148Z" fill="#ffa78c" stroke="#ffa78c" stroke-width="1.51"/><path d="M383,320L551,472L606,274Z" fill="#f96345" stroke="#f96345" stroke-width="1.51"/><path d="M581,94L372,113L606,274Z" fill="#fc7e5d" stroke="#fc7e5d" stroke-width="1.51"/><path d="M372,113L383,320L606,274Z" fill="#fc7a59" stroke="#fc7a59" stroke-width="1.51"/><path d="M554,682L367,751L610,791Z" fill="#d1422f" stroke="#d1422f" stroke-width="1.51"/><path d="M381,-39L372,113L581,94Z" fill="#fe9374" stroke="#fe9374" stroke-width="1.51"/><path d="M383,320L361,436L551,472Z" fill="#f86447" stroke="#f86447" stroke-width="1.51"/><path d="M459,595L367,751L554,682Z" fill="#da4a36" stroke="#da4a36" stroke-width="1.51"/><path d="M361,436L459,595L551,472Z" fill="#f0563d" stroke="#f0563d" stroke-width="1.51"/><path d="M361,436L307,455L459,595Z" fill="#f26046" stroke="#f26046" stroke-width="1.51"/><path d="M307,455L257,587L459,595Z" fill="#ec5f46" stroke="#ec5f46" stroke-width="1.51"/><path d="M257,587L367,751L459,595Z" fill="#df563f" stroke="#df563f" stroke-width="1.51"/><path d="M215,14L372,113L381,-39Z" fill="#fda284" stroke="#fda284" stroke-width="1.51"/><path d="M254,360L361,436L383,320Z" fill="#fa7354" stroke="#fa7354" stroke-width="1.51"/><path d="M372,113L231,185L383,320Z" fill="#fc8968" stroke="#fc8968" stroke-width="1.51"/><path d="M231,185L254,360L383,320Z" fill="#fc8261" stroke="#fc8261" stroke-width="1.51"/><path d="M215,14L381,-39L387,-154Z" fill="#ffad91" stroke="#ffad91" stroke-width="1.51"/><path d="M249,-270L215,14L387,-154Z" fill="#ffbaa2" stroke="#ffbaa2" stroke-width="1.51"/><path d="M-108,792L-203,874L213,794Z" fill="#c87361" stroke="#c87361" stroke-width="1.51"/><path d="M254,360L307,455L361,436Z" fill="#f86f52" stroke="#f86f52" stroke-width="1.51"/><path d="M257,587L213,794L367,751Z" fill="#d75c45" stroke="#d75c45" stroke-width="1.51"/><path d="M215,14L231,185L372,113Z" fill="#fd9c7d" stroke="#fd9c7d" stroke-width="1.51"/><path d="M92,751L-108,792L213,794Z" fill="#ce6e59" stroke="#ce6e59" stroke-width="1.51"/><path d="M24,-252L215,14L249,-270Z" fill="#ffc9b4" stroke="#ffc9b4" stroke-width="1.51"/><path d="M142,616L213,794L257,587Z" fill="#df664e" stroke="#df664e" stroke-width="1.51"/><path d="M143,359L257,587L307,455Z" fill="#f77155" stroke="#f77155" stroke-width="1.51"/><path d="M254,360L143,359L307,455Z" fill="#fa7b5b" stroke="#fa7b5b" stroke-width="1.51"/><path d="M28,438L142,616L143,359Z" fill="#f87f62" stroke="#f87f62" stroke-width="1.51"/><path d="M142,616L92,751L213,794Z" fill="#d86952" stroke="#d86952" stroke-width="1.51"/><path d="M24,-252L84,24L215,14Z" fill="#fdc3ab" stroke="#fdc3ab" stroke-width="1.51"/><path d="M215,14L151,172L231,185Z" fill="#fda182" stroke="#fda182" stroke-width="1.51"/><path d="M151,172L143,359L231,185Z" fill="#fd9474" stroke="#fd9474" stroke-width="1.51"/><path d="M231,185L143,359L254,360Z" fill="#fd8968" stroke="#fd8968" stroke-width="1.51"/><path d="M143,359L142,616L257,587Z" fill="#f17257" stroke="#f17257" stroke-width="1.51"/><path d="M84,24L151,172L215,14Z" fill="#fdad90" stroke="#fdad90" stroke-width="1.51"/><path d="M-29,-247L-135,-89L24,-252Z" fill="#ffddce" stroke="#ffddce" stroke-width="1.51"/><path d="M24,-252L-135,-89L84,24Z" fill="#fed1be" stroke="#fed1be" stroke-width="1.51"/><path d="M-21,609L92,751L142,616Z" fill="#e1745c" stroke="#e1745c" stroke-width="1.51"/><path d="M28,438L-21,609L142,616Z" fill="#ef7c63" stroke="#ef7c63" stroke-width="1.51"/><path d="M-59,201L-79,290L143,359Z" fill="#ff9f81" stroke="#ff9f81" stroke-width="1.51"/><path d="M-59,201L143,359L151,172Z" fill="#fe9d7e" stroke="#fe9d7e" stroke-width="1.51"/><path d="M84,24L-59,201L151,172Z" fill="#fdad90" stroke="#fdad90" stroke-width="1.51"/><path d="M-19,424L28,438L143,359Z" fill="#fd8b6e" stroke="#fd8b6e" stroke-width="1.51"/><path d="M-79,290L-19,424L143,359Z" fill="#fe9477" stroke="#fe9477" stroke-width="1.51"/><path d="M-21,609L-108,792L92,751Z" fill="#dc7963" stroke="#dc7963" stroke-width="1.51"/><path d="M-135,-89L-59,201L84,24Z" fill="#fec1a9" stroke="#fec1a9" stroke-width="1.51"/><path d="M-135,-89L-256,15L-59,201Z" fill="#ffcab5" stroke="#ffcab5" stroke-width="1.51"/><path d="M-19,424L-21,609L28,438Z" fill="#f8876d" stroke="#f8876d" stroke-width="1.51"/><path d="M-303,579L-108,792L-21,609Z" fill="#e68672" stroke="#e68672" stroke-width="1.51"/><path d="M-312,522L-303,579L-21,609Z" fill="#f3907a" stroke="#f3907a" stroke-width="1.51"/><path d="M-312,522L-21,609L-19,424Z" fill="#f88f77" stroke="#f88f77" stroke-width="1.51"/><path d="M-79,290L-312,522L-19,424Z" fill="#ff9b81" stroke="#ff9b81" stroke-width="1.51"/><path d="M-245,257L-312,522L-79,290Z" fill="#ffa58c" stroke="#ffa58c" stroke-width="1.51"/><path d="M-256,15L-291,85L-59,201Z" fill="#ffc5af" stroke="#ffc5af" stroke-width="1.51"/><path d="M-256,-182L-135,-89L-29,-247Z" fill="#fee2d6" stroke="#fee2d6" stroke-width="1.51"/><path d="M-245,257L-79,290L-59,201Z" fill="#ffae94" stroke="#ffae94" stroke-width="1.51"/><path d="M-291,85L-245,257L-59,201Z" fill="#ffbaa2" stroke="#ffbaa2" stroke-width="1.51"/><path d="M-303,579L-203,874L-108,792Z" fill="#db8573" stroke="#db8573" stroke-width="1.51"/><path d="M-256,-182L-256,15L-135,-89Z" fill="#ffddcf" stroke="#ffddcf" stroke-width="1.51"/><path d="M-256,-182L-291,85L-256,15Z" fill="#ffd9c9" stroke="#ffd9c9" stroke-width="1.51"/><path d="M-291,85L-312,522L-245,257Z" fill="#ffb199" stroke="#ffb199" stroke-width="1.51"/></svg>
